<svg width="161" height="37" viewBox="0 0 161 37" fill="none" xmlns="http://www.w3.org/2000/svg">
<g clip-path="url(#clip0_120_127)">
<path d="M47.0456 19.9879H54.7108V16.8568H47.0456V12.4985H55.4509V9.36743H43.5547V27.6324H55.6102V24.5013H47.0456V19.9879Z" fill="#102E34"/>
<path d="M64.749 9.36743H57.166V12.395H59.5886V24.6048H57.166V27.6324H64.749C67.225 27.6324 69.1079 27.0116 70.3983 25.7699C71.6893 24.5282 72.3339 22.6802 72.3327 20.2259V16.7781C72.3327 14.3252 71.6881 12.4771 70.3983 11.2341C69.1092 9.99103 67.2263 9.36878 64.749 9.36743ZM68.8575 20.3355C68.8575 21.6558 68.5328 22.6816 67.8839 23.4128C67.2349 24.144 66.208 24.5069 64.8017 24.5013H63.0638V12.4985H64.8017C66.208 12.4985 67.2349 12.8593 67.8839 13.5808C68.5328 14.3024 68.8575 15.333 68.8575 16.6726V20.3355Z" fill="#102E34"/>
<path d="M77.766 19.9879H85.4332V16.8568H77.766V12.4985H86.173V9.36743H74.2773V27.6324H86.3329V24.5013H77.766V19.9879Z" fill="#102E34"/>
<path d="M98.5057 25.2836H98.0371L94.4213 9.36743H87.8887V27.6324H91.2717V11.7162H91.7403L95.356 27.6324H101.889V9.36743H98.5057V25.2836Z" fill="#102E34"/>
<path d="M115.481 17.8994C114.364 17.4234 113.199 17.0639 112.005 16.8269L111.392 16.6962C110.763 16.5741 110.147 16.3899 109.554 16.1465C109.13 15.9808 108.755 15.7108 108.468 15.3623C108.222 15.028 108.096 14.6232 108.109 14.2109C108.096 13.9031 108.158 13.5966 108.29 13.3171C108.422 13.0375 108.62 12.7928 108.868 12.6032C109.374 12.2104 110.161 12.014 111.225 12.014C111.852 12.0006 112.476 12.1026 113.064 12.3148C113.552 12.4943 113.969 12.8248 114.249 13.2567C114.549 13.7683 114.696 14.3531 114.672 14.9432V15.7295H118.137V14.9432C118.137 13.6197 117.839 12.5168 117.243 11.6344C116.643 10.7498 115.79 10.0586 114.792 9.647C113.667 9.18643 112.456 8.95969 111.236 8.98105C110.045 8.95445 108.861 9.17276 107.76 9.62212C106.831 10.0007 106.034 10.6347 105.463 11.4477C104.905 12.3007 104.622 13.2992 104.652 14.3126C104.652 15.4287 104.896 16.3353 105.383 17.0323C105.922 17.7691 106.651 18.3513 107.496 18.7189C108.55 19.1913 109.654 19.5469 110.788 19.779L111.401 19.9097C112.091 20.0535 112.772 20.2414 113.438 20.4719C113.917 20.6268 114.351 20.8913 114.706 21.2436C115.009 21.5818 115.166 22.0219 115.145 22.4717C115.151 22.8201 115.074 23.1651 114.919 23.4788C114.764 23.7923 114.536 24.0656 114.254 24.2765C113.658 24.7467 112.756 24.9825 111.549 24.9839C110.342 24.9853 109.401 24.7087 108.726 24.1541C108.033 23.6009 107.686 22.7767 107.686 21.6813V20.9593H104.225V21.6917C104.19 22.8902 104.514 24.0726 105.157 25.0918C105.79 26.043 106.686 26.7967 107.741 27.2638C110.154 28.2597 112.871 28.2739 115.295 27.3033C116.285 26.8774 117.134 26.1883 117.746 25.3138C118.331 24.4417 118.632 23.416 118.61 22.3721C118.61 21.256 118.336 20.3405 117.786 19.6254C117.179 18.8685 116.386 18.2748 115.481 17.8994Z" fill="#102E34"/>
<path d="M130.822 17.5577C129.846 17.1519 128.794 16.9514 127.735 16.9694H126.273V16.7083L133.748 11.719V9.36743H120.981V10.8302H132.1V11.0912L124.545 16.1344V18.3286H127.288C128.117 18.319 128.942 18.4558 129.722 18.7325C130.416 18.9744 131.025 19.4056 131.478 19.9757C131.912 20.5282 132.13 21.2596 132.13 22.1699V22.3274C132.144 22.8908 132.038 23.4509 131.817 23.9713C131.598 24.4917 131.268 24.9609 130.851 25.3483C129.999 26.1507 128.81 26.5513 127.285 26.55C125.761 26.5486 124.537 26.1266 123.614 25.284C122.673 24.4387 122.203 23.2763 122.205 21.797V21.279H120.555V21.7762C120.555 23.0995 120.843 24.2273 121.42 25.1597C121.987 26.0848 122.821 26.825 123.814 27.2876C124.899 27.7899 126.087 28.0401 127.285 28.019C128.469 28.0462 129.644 27.8051 130.718 27.3145C131.648 26.8852 132.432 26.2027 132.978 25.3483C133.525 24.4519 133.801 23.4216 133.775 22.3771V22.116C133.775 20.9848 133.51 20.0399 132.978 19.2816C132.44 18.5182 131.692 17.9205 130.822 17.5577Z" fill="#102E34"/>
<path d="M144.038 16.368C143.097 15.8635 142.043 15.6071 140.976 15.6231C139.613 15.6231 138.544 15.8714 137.767 16.368C137.088 16.7687 136.517 17.3302 136.106 18.0031H135.791V15.2039C135.791 13.7224 136.214 12.5583 137.061 11.7117C137.909 10.865 139.1 10.4425 140.635 10.4438C142.137 10.4438 143.275 10.8098 144.051 11.5416C144.826 12.2733 145.214 13.2416 145.216 14.4465H146.84C146.855 13.4755 146.611 12.518 146.133 11.6722C145.639 10.8308 144.911 10.15 144.038 9.71137C143.112 9.22169 141.978 8.97753 140.635 8.97889C139.292 8.9803 138.132 9.24171 137.152 9.76328C136.213 10.2657 135.444 11.0346 134.941 11.9731C134.402 13.029 134.136 14.2034 134.169 15.3886V21.8501C134.135 23.0144 134.43 24.1647 135.018 25.1701C135.569 26.0808 136.369 26.8157 137.323 27.2887C138.342 27.7709 139.455 28.0211 140.582 28.0211C141.709 28.0211 142.822 27.7709 143.841 27.2887C144.789 26.8202 145.588 26.0957 146.146 25.1971C146.73 24.2271 147.026 23.1106 146.997 21.9788V21.6654C147.026 20.5441 146.75 19.436 146.198 18.4596C145.682 17.5789 144.935 16.8556 144.038 16.368ZM145.374 21.9539C145.374 23.3856 144.929 24.511 144.038 25.3299C143.148 26.1488 141.997 26.5583 140.583 26.5583C139.169 26.5583 138.017 26.1488 137.126 25.3299C136.234 24.511 135.789 23.3856 135.791 21.9539V21.7464C135.768 20.8753 135.983 20.0146 136.414 19.2563C136.815 18.5664 137.399 18.0006 138.101 17.6213C138.873 17.2338 139.725 17.0321 140.588 17.0321C141.452 17.0321 142.303 17.2338 143.075 17.6213C143.778 18.0013 144.362 18.5669 144.765 19.2563C145.194 20.0149 145.409 20.8754 145.388 21.7464L145.374 21.9539Z" fill="#102E34"/>
<path d="M159.171 10.8466C157.952 9.60145 156.293 8.97888 154.194 8.97888C152.096 8.97888 150.436 9.60145 149.215 10.8466C147.996 12.0917 147.387 13.9449 147.389 16.4061V20.5939C147.389 23.0523 147.997 24.9055 149.215 26.1534C150.434 27.4013 152.093 28.0239 154.194 28.0211C156.293 28.0211 157.952 27.3985 159.171 26.1534C160.39 24.9083 161 23.0551 161 20.5939V16.4061C161 13.9477 160.39 12.0945 159.171 10.8466ZM159.344 20.6977C159.344 22.5308 158.914 23.9655 158.051 25.0017C157.189 26.0379 155.904 26.5567 154.198 26.5581C152.49 26.5581 151.204 26.0393 150.342 25.0017C149.479 23.964 149.048 22.5294 149.046 20.6977V16.3024C149.046 14.4706 149.478 13.0359 150.342 11.9984C151.206 10.9608 152.491 10.4419 154.198 10.4419C155.906 10.4419 157.192 10.9608 158.055 11.9984C158.919 13.0359 159.35 14.4706 159.349 16.3024L159.344 20.6977Z" fill="#102E34"/>
<path d="M17.2464 11.3107C16.8824 10.8671 17.3688 10.5369 17.3738 10.5334C17.4233 10.5895 17.4598 10.6565 17.4806 10.7296C17.5013 10.8025 17.5057 10.8795 17.4934 10.9545C17.4811 11.0295 17.4525 11.1006 17.4097 11.1624C17.3668 11.2241 17.311 11.2749 17.2464 11.3107Z" fill="#92CCBF"/>
<path d="M18.666 8.90402C19.0698 7.91703 20.2104 8.25832 20.2216 8.26019C20.2216 8.27125 19.8122 9.25266 18.666 8.90402Z" fill="#92CCBF"/>
<path d="M15.2322 10.1447C15.7387 9.70076 15.4983 8.98632 15.4953 8.97888C15.4953 8.97888 14.9888 9.42786 15.2322 10.1447Z" fill="#92CCBF"/>
<path d="M16.7227 8.98211C16.7519 9.78281 17.4849 9.75601 17.5004 9.75601C17.5004 9.75601 17.4674 8.95048 16.7227 8.97966V8.98211Z" fill="#92CCBF"/>
<path d="M16.3372 8.97889C17.1683 8.92521 17.1109 8.2086 17.1109 8.20166C17.1109 8.20166 16.2763 8.25878 16.3372 8.97889Z" fill="#92CCBF"/>
<path d="M16.8388 8.97884C16.3898 8.17699 17.3865 7.81772 17.3968 7.81299C17.4596 7.92116 17.4948 8.04092 17.4998 8.16336C17.5048 8.28573 17.4796 8.4076 17.4258 8.5198C17.3721 8.632 17.2915 8.73156 17.1898 8.81107C17.0881 8.89058 16.9681 8.94791 16.8388 8.97884Z" fill="#92CCBF"/>
<path d="M21.813 8.97888C21.5852 9.60067 22.524 9.75426 22.5315 9.75612C22.5315 9.75612 22.7568 9.1305 21.8155 8.97888H21.813Z" fill="#92CCBF"/>
<path d="M19.0553 10.8847C18.935 10.9208 18.8093 10.9308 18.6854 10.9139C18.5615 10.8971 18.4419 10.8537 18.3335 10.7865C18.2251 10.7192 18.1299 10.6292 18.0536 10.5219C17.9772 10.4144 17.9212 10.2917 17.8887 10.1606C17.8887 10.1606 18.8556 9.97288 19.0553 10.8847Z" fill="#92CCBF"/>
<path d="M18.278 11.3159C18.1786 12.1612 17.1224 12.0862 17.1113 12.0862C17.1113 12.0862 17.2174 11.2368 18.278 11.3159Z" fill="#92CCBF"/>
<path d="M24.1113 11.7048C24.215 12.553 25.2692 12.4757 25.278 12.4737C25.278 12.4737 25.1699 11.6214 24.1113 11.7048Z" fill="#92CCBF"/>
<path d="M18.6667 10.8694C18.4336 10.9576 18.1805 10.934 17.9622 10.8038C17.7438 10.6737 17.5778 10.4475 17.5 10.1741C17.5 10.1741 18.4207 9.92608 18.6667 10.8694Z" fill="#92CCBF"/>
<path d="M21.3887 8.92648C21.6218 9.0146 21.875 8.99092 22.0935 8.86067C22.3119 8.73036 22.4778 8.50395 22.5553 8.2306C22.5553 8.2306 21.631 7.98471 21.3887 8.92648Z" fill="#92CCBF"/>
<path d="M20.2227 11.7566C20.5866 12.7289 21.7669 12.4351 21.7782 12.4333C21.7782 12.4226 21.4011 11.4574 20.2227 11.7566Z" fill="#92CCBF"/>
<path d="M11.2756 10.5334C11.3389 11.643 10.1229 11.6993 10.1118 11.6993C10.1118 11.6877 10.0541 10.584 11.2756 10.5334Z" fill="#92CCBF"/>
<path d="M18.3897 8.97884C18.5189 8.94873 18.6391 8.89198 18.7412 8.8128C18.8433 8.73368 18.9245 8.6343 18.9788 8.52204C19.0331 8.40977 19.059 8.28767 19.0546 8.16484C19.0503 8.042 19.0157 7.92171 18.9536 7.81299C18.9536 7.81299 17.9475 8.17396 18.3897 8.97884Z" fill="#92CCBF"/>
<path d="M17.1113 13.0657C17.2206 13.1895 17.3593 13.2561 17.5022 13.2535C17.6449 13.251 17.7822 13.1794 17.8891 13.0518C17.7796 12.9284 17.6407 12.8621 17.498 12.8651C17.3552 12.868 17.218 12.9401 17.1113 13.0681V13.0657Z" fill="#92CCBF"/>
<path d="M17.1113 11.2695C17.378 9.88851 18.6528 10.1667 18.6669 10.1692C18.6669 10.1841 18.3942 11.5552 17.1134 11.272L17.1113 11.2695Z" fill="#92CCBF"/>
<path d="M18.6647 17.0945C18.4281 17.1757 18.1728 17.1469 17.9547 17.0143C17.7365 16.8817 17.5731 16.656 17.5 16.3865C17.5 16.3865 18.4409 16.1603 18.6667 17.099L18.6647 17.0945Z" fill="#92CCBF"/>
<path d="M14.6842 10.1447C13.9238 9.49919 14.8699 8.98849 14.8798 8.97888C14.8798 8.97888 15.6401 9.63021 14.6842 10.1447Z" fill="#92CCBF"/>
<path d="M23.7288 17.5284C24.982 17.4483 24.8954 16.3721 24.8838 16.3625C24.8722 16.3625 23.6248 16.4484 23.7288 17.5284Z" fill="#92CCBF"/>
<path d="M16.7227 14.7067C17.0068 14.8334 17.3271 14.8417 17.6169 14.7298C17.9067 14.618 18.1437 14.3945 18.2782 14.1062C18.2671 14.1062 17.1671 13.7174 16.7227 14.7067Z" fill="#92CCBF"/>
<path d="M15.7479 19.0829C15.1475 18.1141 16.1365 17.5327 16.1559 17.5284C16.1559 17.5284 16.7543 18.5038 15.7479 19.0829Z" fill="#92CCBF"/>
<path d="M26.4486 10.9219C27.281 10.8684 27.2222 10.1515 27.2222 10.1447C27.2222 10.1447 26.3863 10.2015 26.4486 10.9219Z" fill="#92CCBF"/>
<path d="M17.8861 16.7514C17.0569 16.7013 17.1121 15.981 17.1121 15.9741C17.1121 15.9741 17.9448 16.0294 17.8861 16.7514Z" fill="#92CCBF"/>
<path d="M21.5967 17.5284C22.0219 17.9303 21.5645 18.3019 21.5607 18.3057C21.5038 18.2569 21.4589 18.1957 21.4291 18.1269C21.3994 18.058 21.3858 17.9832 21.3892 17.9083C21.3927 17.8333 21.4131 17.7601 21.4491 17.6942C21.485 17.6284 21.5355 17.5717 21.5967 17.5284Z" fill="#92CCBF"/>
<path d="M15.9453 10.9649C16.1638 11.8897 17.102 11.6794 17.11 11.6771C17.0381 11.4089 16.8752 11.1835 16.6566 11.0501C16.4381 10.9167 16.1818 10.8861 15.9434 10.9649H15.9453Z" fill="#92CCBF"/>
<path d="M18.6667 13.5898C18.4336 13.6779 18.1805 13.6543 17.9622 13.5242C17.7438 13.394 17.5778 13.1678 17.5 12.8944C17.5 12.8944 18.4207 12.6465 18.6667 13.5898Z" fill="#92CCBF"/>
<path d="M14 12.4814C14.0373 12.8825 14.7708 12.8649 14.7778 12.8649C14.7696 12.8069 14.7427 12.7506 14.6985 12.6994C14.6543 12.6482 14.5939 12.6032 14.521 12.5673C14.4481 12.5313 14.3643 12.5051 14.2746 12.4904C14.1851 12.4756 14.0916 12.4725 14 12.4814Z" fill="#92CCBF"/>
<path d="M14.6512 11.6991C14.5861 11.7508 14.5294 11.8252 14.4854 11.9166C14.4414 12.0081 14.4113 12.1141 14.3974 12.2266C14.3836 12.3391 14.3862 12.4551 14.4052 12.5657C14.4242 12.6764 14.459 12.7787 14.5071 12.8649C14.5071 12.8649 15.0036 12.3832 14.6512 11.6991Z" fill="#92CCBF"/>
<path d="M28.0019 16.8082C28.3672 17.7801 29.5443 17.4882 29.5556 17.4847C29.5556 17.4847 29.1789 16.5091 28 16.8082H28.0019Z" fill="#92CCBF"/>
<path d="M11.5285 15.9741C12.1184 17.0841 10.6289 17.5286 10.6142 17.5286C10.6142 17.5286 10.0243 16.4123 11.5261 15.9741H11.5285Z" fill="#92CCBF"/>
<path d="M25.3899 18.3056C26.3995 17.9535 25.9613 17.1585 25.9562 17.1398C25.9562 17.1398 24.9465 17.4966 25.3899 18.3056Z" fill="#92CCBF"/>
<path d="M18.2773 15.9384C19.2863 15.1062 20.2113 16.0056 20.2218 16.0143C20.2218 16.0143 19.2024 16.8465 18.2773 15.9384Z" fill="#92CCBF"/>
<path d="M15.5551 17.9187C15.4518 17.9116 15.3482 17.9268 15.2512 17.9633C15.1542 17.9997 15.066 18.0565 14.9925 18.1299C14.9191 18.2033 14.862 18.2915 14.8251 18.3889C14.7882 18.4862 14.7724 18.5903 14.7787 18.6942C14.7787 18.6942 15.6055 18.6383 15.5445 17.9187H15.5551Z" fill="#92CCBF"/>
<path d="M9.48125 10.5334C9.09965 11.1817 9.57966 11.6993 9.5842 11.6993C9.63592 11.6183 9.67493 11.5201 9.69821 11.4124C9.72148 11.3046 9.7284 11.19 9.71847 11.0775C9.70854 10.9649 9.68198 10.8574 9.64087 10.763C9.59975 10.6687 9.54515 10.5902 9.48125 10.5334Z" fill="#92CCBF"/>
<path d="M15.944 17.6406C15.4781 18.1424 14.7847 17.8084 14.7773 17.8054C14.9139 17.664 15.1081 17.5692 15.3231 17.5389C15.5381 17.5085 15.759 17.5448 15.944 17.6406Z" fill="#92CCBF"/>
<path d="M16.7284 7.03577C18.3864 7.1372 18.2784 8.57641 18.276 8.59024C18.2599 8.59024 16.6134 8.48189 16.7284 7.03577Z" fill="#92CCBF"/>
<path d="M14.6312 17.917C14.5672 17.9547 14.5125 18.0069 14.4712 18.0698C14.4299 18.1326 14.4032 18.2043 14.3932 18.2793C14.3831 18.3544 14.3899 18.4308 14.4131 18.5027C14.4363 18.5746 14.4752 18.6402 14.5269 18.6942C14.5269 18.6942 15.0131 18.3488 14.6312 17.917Z" fill="#92CCBF"/>
<path d="M13.612 16.7907C13.3708 16.7153 13.1125 16.7488 12.8937 16.884C12.6749 17.0191 12.5136 17.2449 12.4453 17.5116C12.4453 17.5116 13.4078 17.7038 13.612 16.7907Z" fill="#92CCBF"/>
<path d="M9.72266 13.1094C10.4079 12.6262 11.2691 13.0078 11.2782 13.0122C11.0816 13.1476 10.8152 13.2321 10.5289 13.2501C10.2426 13.2679 9.95598 13.218 9.72266 13.1094Z" fill="#92CCBF"/>
<path d="M8.94048 10.5334C8.10973 10.5868 8.16685 11.3038 8.16685 11.3107C8.16685 11.3107 9.00278 11.2538 8.94048 10.5334Z" fill="#92CCBF"/>
<path d="M21.3891 15.9659C21.321 15.548 20.6179 15.5854 20.6113 15.5869C20.6237 15.6473 20.654 15.7054 20.7003 15.7575C20.7466 15.8096 20.8081 15.8549 20.8808 15.8903C20.9536 15.9258 21.0362 15.9507 21.1236 15.9637C21.211 15.9768 21.3013 15.9775 21.3891 15.9659Z" fill="#92CCBF"/>
<path d="M14.7773 15.1905C14.8769 14.347 15.9351 14.4198 15.944 14.4218C15.944 14.4218 15.8422 15.2774 14.7773 15.1905Z" fill="#92CCBF"/>
<path d="M12.0551 12.5029C11.8998 12.4586 11.731 12.4702 11.5853 12.5353C11.4397 12.6003 11.329 12.7135 11.2773 12.8502C11.2773 12.8502 11.8921 12.9748 12.0551 12.5029Z" fill="#92CCBF"/>
<path d="M14.0004 16.3887C13.8449 16.3447 13.6758 16.3565 13.5301 16.4217C13.3844 16.4869 13.2739 16.6002 13.2227 16.7367C13.2227 16.7367 13.8375 16.8591 14.0004 16.3907V16.3887Z" fill="#92CCBF"/>
<path d="M10.5004 15.9618C10.4 15.5278 9.72966 15.5883 9.72266 15.5883C9.73922 15.6512 9.7727 15.7109 9.82115 15.764C9.8696 15.817 9.93192 15.8623 10.0045 15.8972C10.0771 15.9321 10.1584 15.9557 10.2436 15.9669C10.3288 15.9779 10.4161 15.9762 10.5004 15.9618Z" fill="#92CCBF"/>
<path d="M14.0528 16.3625C14.867 16.9746 13.9478 17.5128 13.9401 17.5284C13.9401 17.5284 13.1286 16.9105 14.0554 16.3625H14.0528Z" fill="#92CCBF"/>
<path d="M8.94531 16.6848C9.21763 15.728 10.104 16.0133 10.112 16.0158C10.0266 16.2938 9.85682 16.5195 9.63894 16.6449C9.421 16.7703 9.17216 16.7855 8.94531 16.6873V16.6848Z" fill="#92CCBF"/>
<path d="M15.5281 12.0878C15.7227 11.1288 14.8023 10.922 14.7939 10.922C14.7939 10.922 14.6015 11.886 15.5281 12.0878Z" fill="#92CCBF"/>
<path d="M21.8914 13.2538C22.8947 13.6085 22.464 14.4129 22.4591 14.4196C22.4591 14.4196 21.4436 14.0559 21.8914 13.2538Z" fill="#92CCBF"/>
<path d="M29.0531 15.5854C28.0456 15.9407 28.482 16.7428 28.4867 16.7513C28.4867 16.7513 29.4987 16.3896 29.0531 15.5854Z" fill="#92CCBF"/>
<path d="M23.7233 8.59021C22.4714 8.67021 22.5579 9.74464 22.5579 9.75606C22.5694 9.75606 23.8137 9.67036 23.7118 8.59021H23.7233Z" fill="#92CCBF"/>
<path d="M10.9986 8.59021C10.479 9.73789 11.9698 10.1404 11.9698 10.1447C11.9698 10.134 12.4822 8.98849 10.9986 8.59021Z" fill="#92CCBF"/>
<path d="M13.2306 10.1705C13.3272 10.6507 14.0004 10.5164 14.0004 10.5149C13.9915 10.4523 13.9626 10.392 13.9158 10.3386C13.869 10.2852 13.8056 10.2401 13.7305 10.2069C13.6554 10.1736 13.5706 10.153 13.4825 10.1467C13.3945 10.1404 13.3056 10.1485 13.2227 10.1705H13.2306Z" fill="#92CCBF"/>
<path d="M14.7773 10.6452C15.0563 10.5121 15.372 10.4973 15.6608 10.6038C15.9495 10.7103 16.1897 10.9301 16.3329 11.2188C16.3329 11.2188 15.2466 11.6496 14.7773 10.6452Z" fill="#92CCBF"/>
<path d="M12.3377 10.5334C13.3042 11.2106 12.5625 12.0809 12.5625 12.0879C12.5625 12.0879 11.5936 11.4038 12.3377 10.5334Z" fill="#92CCBF"/>
<path d="M11.3748 11.6991C11.2466 11.7555 11.1369 11.8338 11.0541 11.928C10.9714 12.0222 10.9179 12.1298 10.8977 12.2424C10.8775 12.3551 10.8912 12.4698 10.9377 12.5777C10.9842 12.6856 11.0623 12.7839 11.166 12.8649C11.166 12.8649 12.1363 12.3487 11.3748 11.6991Z" fill="#92CCBF"/>
<path d="M19.0576 9.36743C19.8869 9.41925 19.8317 10.1377 19.8317 10.1447C19.8317 10.1447 18.999 10.0894 19.0576 9.36743Z" fill="#92CCBF"/>
<path d="M16.3258 11.311C16.2191 11.308 16.113 11.3265 16.0146 11.3652C15.9161 11.404 15.8276 11.462 15.7549 11.5356C15.6822 11.6092 15.6271 11.6966 15.5933 11.7918C15.5595 11.887 15.5477 11.988 15.5587 12.0879C15.5587 12.0879 16.4161 12.0104 16.3258 11.311Z" fill="#92CCBF"/>
<path d="M21.0004 8.6564C20.8647 8.5836 20.7093 8.57031 20.5651 8.61922C20.421 8.66818 20.2987 8.77573 20.2227 8.92045C20.2227 8.92045 20.7479 9.16393 21.0004 8.6564Z" fill="#92CCBF"/>
<path d="M16.825 10.922C15.862 10.411 16.6111 9.76202 16.6187 9.7561C16.6187 9.7561 17.5741 10.2671 16.825 10.922Z" fill="#92CCBF"/>
<path d="M30.3327 13.7575C30.1242 13.6221 29.8874 13.6055 29.6706 13.711C29.4538 13.8164 29.2733 14.036 29.166 14.325C29.166 14.325 29.9792 14.7619 30.3327 13.7575Z" fill="#92CCBF"/>
<path d="M27.6113 10.8107C27.7086 10.5378 27.8856 10.3252 28.1039 10.2188C28.3223 10.1124 28.5645 10.1208 28.778 10.2422C28.778 10.2422 28.3301 11.2509 27.6113 10.8107Z" fill="#92CCBF"/>
<path d="M17.0821 11.3107C17.0208 11.2976 16.9622 11.2659 16.9106 11.2176C16.859 11.1694 16.8156 11.1061 16.7835 11.0319C16.7515 10.9578 16.7315 10.8747 16.725 10.7885C16.7185 10.7024 16.7257 10.6153 16.746 10.5334C16.746 10.5334 17.2344 10.7226 17.0821 11.3107Z" fill="#92CCBF"/>
<path d="M21.3357 8.59017C21.6227 7.69433 20.6596 7.42637 20.6498 7.42432C20.6498 7.42432 20.3668 8.32642 21.3357 8.59017Z" fill="#92CCBF"/>
<path d="M10.2227 14.0309C11.2317 14.5022 10.7961 15.575 10.7928 15.5854C10.7827 15.5854 9.78384 15.1078 10.2227 14.0309Z" fill="#92CCBF"/>
<path d="M17.7742 8.97888C16.7634 9.3339 17.2082 10.1372 17.2122 10.1447C17.2122 10.1447 18.223 9.78417 17.7742 8.97888Z" fill="#92CCBF"/>
<path d="M12.1399 10.1447C12.2064 10.1046 12.2665 10.0395 12.3156 9.95437C12.3647 9.86933 12.4015 9.76663 12.4231 9.65407C12.4449 9.54152 12.4509 9.42217 12.4408 9.30516C12.4306 9.18815 12.4047 9.07655 12.3648 8.97888C12.3648 8.97888 11.8578 9.40195 12.1444 10.1398L12.1399 10.1447Z" fill="#92CCBF"/>
<path d="M21.6201 16.3625C21.7503 16.314 21.8651 16.2423 21.9557 16.1527C22.0461 16.063 22.11 15.958 22.1423 15.8455C22.1746 15.733 22.1745 15.6161 22.142 15.5036C22.1096 15.3911 22.0456 15.2862 21.9549 15.1967C21.9549 15.1967 20.9531 15.6647 21.6145 16.3625H21.6201Z" fill="#92CCBF"/>
<path d="M20.6076 14.4196C19.3659 14.3437 19.4464 13.2635 19.4464 13.2538C19.4464 13.2538 20.6954 13.3346 20.6076 14.4196Z" fill="#92CCBF"/>
<path d="M24.885 14.0308C23.6417 13.9562 23.7238 12.886 23.7238 12.865C23.7238 12.865 24.9718 12.9466 24.885 14.0308Z" fill="#92CCBF"/>
<path d="M26.7687 10.922C27.147 10.0041 25.7246 9.75793 25.7099 9.7561C25.7099 9.76513 25.3365 10.6793 26.7687 10.922Z" fill="#92CCBF"/>
<path d="M27.6088 15.1967C26.7813 15.1466 26.8347 14.4264 26.8347 14.4194C26.8347 14.4194 27.6674 14.4747 27.6088 15.1967Z" fill="#92CCBF"/>
<path d="M25.2805 15.5853C26.1096 15.5319 26.0544 14.815 26.0544 14.8081C26.0544 14.8081 25.22 14.8633 25.2805 15.5853Z" fill="#92CCBF"/>
<path d="M21.7773 17.5339C21.879 18.3803 22.9352 18.3052 22.944 18.3032C22.944 18.3032 22.838 17.4527 21.7773 17.5339Z" fill="#92CCBF"/>
<path d="M21 10.5389C21.1016 11.3861 22.1557 11.3088 22.1667 11.3088C22.1667 11.3088 22.0606 10.4577 21 10.5389Z" fill="#92CCBF"/>
<path d="M26.8327 17.9222C26.7331 18.7674 25.6749 18.6925 25.666 18.6925C25.666 18.6925 25.7701 17.8433 26.8327 17.9222Z" fill="#92CCBF"/>
<path d="M28.3936 13.6422C29.2226 13.5888 29.1656 12.8719 29.1656 12.865C29.157 12.865 28.3314 12.9219 28.3918 13.6422H28.3936Z" fill="#92CCBF"/>
<path d="M29.5336 15.1967C28.6221 15.0119 28.7894 14.0403 28.7894 14.0309C28.799 14.0309 29.7047 14.2204 29.5336 15.1967Z" fill="#92CCBF"/>
<path d="M28.3893 16.0062C28.1195 16.486 27.2365 16.3432 27.2227 16.3418C27.3083 16.2028 27.4781 16.0899 27.6959 16.0273C27.9139 15.9646 28.1626 15.9571 28.3893 16.0062Z" fill="#92CCBF"/>
<path d="M27.4205 16.7512C26.8088 17.4734 27.8102 17.9126 27.8183 17.9171C27.9026 17.8231 27.9597 17.7145 27.9852 17.5996C28.0108 17.4846 28.0041 17.3665 27.9657 17.2539C27.9274 17.1415 27.8582 17.0377 27.7638 16.9506C27.6692 16.8634 27.5518 16.7953 27.4205 16.7512Z" fill="#92CCBF"/>
<path d="M27.8884 13.6422C26.8801 13.1724 27.3153 12.0981 27.3203 12.0878C27.3304 12.0878 28.3286 12.5659 27.8884 13.6422Z" fill="#92CCBF"/>
<path d="M20.2789 10.1447C20.3434 10.1242 20.4033 10.0862 20.4542 10.0334C20.5051 9.98069 20.5456 9.91447 20.5728 9.83983C20.6 9.76514 20.6132 9.68394 20.6114 9.60212C20.6095 9.52035 20.5927 9.44016 20.5621 9.36743C20.5621 9.36743 20.0573 9.60571 20.2789 10.1428V10.1447Z" fill="#92CCBF"/>
<path d="M24.3749 11.6992C24.4247 11.6407 24.4609 11.574 24.4812 11.5032C24.5015 11.4323 24.5056 11.3587 24.4932 11.2864C24.4809 11.2142 24.4523 11.1448 24.4092 11.0823C24.3661 11.0197 24.3093 10.9652 24.242 10.922C24.1904 10.98 24.1529 11.0466 24.1316 11.1176C24.1103 11.1887 24.1057 11.2628 24.1182 11.3355C24.1306 11.4082 24.1598 11.4779 24.2039 11.5405C24.248 11.603 24.3062 11.657 24.3749 11.6992Z" fill="#92CCBF"/>
<path d="M18.2782 13.1809C17.8744 12.1908 16.7318 12.5333 16.7227 12.5353C16.7227 12.5353 17.1311 13.5254 18.2782 13.1809Z" fill="#92CCBF"/>
<path d="M21.7733 12.858C21.6637 12.8536 21.5562 12.8299 21.4575 12.7884C21.3587 12.7469 21.2707 12.6883 21.1987 12.6163C21.1266 12.5443 21.0723 12.4603 21.0388 12.3694C21.0052 12.2786 20.9933 12.1828 21.0036 12.0878C21.1141 12.092 21.2223 12.1159 21.3216 12.1579C21.421 12.1999 21.5094 12.2591 21.5816 12.3319C21.6536 12.4047 21.7079 12.4895 21.7408 12.5812C21.7738 12.6729 21.7849 12.7695 21.7733 12.865V12.858Z" fill="#92CCBF"/>
<path d="M22.5551 13.2557C22.5553 13.362 22.535 13.4672 22.4954 13.5648C22.4557 13.6623 22.3975 13.7501 22.3245 13.8227C22.2515 13.8952 22.1653 13.9511 22.0712 13.9866C21.977 14.0221 21.877 14.0366 21.7773 14.0291C21.7771 13.9228 21.7975 13.8176 21.8372 13.7201C21.8768 13.6225 21.935 13.5347 22.0079 13.4622C22.0809 13.3896 22.1671 13.3338 22.2613 13.2983C22.3554 13.2628 22.4555 13.2482 22.5551 13.2557Z" fill="#92CCBF"/>
<path d="M20.22 13.2537C19.3884 13.2016 19.4462 12.4838 19.4462 12.4764C19.4462 12.4764 20.28 12.534 20.22 13.2537Z" fill="#92CCBF"/>
<path d="M22.5008 12.8616C22.5329 12.7921 22.5511 12.7167 22.5544 12.6398C22.5576 12.563 22.5459 12.4862 22.5197 12.4141C22.4936 12.342 22.4537 12.276 22.4023 12.2199C22.3509 12.1639 22.2891 12.119 22.2206 12.0878C22.1879 12.1579 22.1695 12.2342 22.1665 12.3119C22.1634 12.3895 22.1757 12.4671 22.2027 12.5397C22.2297 12.6124 22.2707 12.6787 22.3234 12.7346C22.3761 12.7905 22.4392 12.8349 22.5091 12.865L22.5008 12.8616Z" fill="#92CCBF"/>
<path d="M24.0958 14.4194C24.1121 14.5017 24.1158 14.5874 24.1066 14.6716C24.0973 14.7557 24.0754 14.8365 24.042 14.9092C24.0086 14.9817 23.9645 15.0446 23.9124 15.094C23.8602 15.1434 23.8011 15.1783 23.7384 15.1967C23.7221 15.1144 23.7184 15.0286 23.7276 14.9445C23.7369 14.8604 23.7588 14.7796 23.7922 14.7069C23.8255 14.6344 23.8696 14.5715 23.9218 14.5221C23.974 14.4726 24.0331 14.4377 24.0958 14.4194Z" fill="#92CCBF"/>
<path d="M18.2773 14.4078C18.362 14.4217 18.4498 14.4232 18.5354 14.4123C18.6209 14.4013 18.7025 14.3781 18.7752 14.344C18.8479 14.3099 18.9101 14.2657 18.9582 14.2139C19.0064 14.1622 19.0393 14.104 19.0551 14.0429C18.9704 14.0288 18.8825 14.0271 18.7969 14.0379C18.7112 14.0488 18.6295 14.072 18.5568 14.1061C18.4841 14.1403 18.4218 14.1846 18.3738 14.2364C18.3257 14.2883 18.2929 14.3466 18.2773 14.4078Z" fill="#92CCBF"/>
<path d="M18.666 15.202C18.7316 16.0475 19.4383 15.9735 19.4438 15.9714C19.4438 15.9714 19.3746 15.1216 18.666 15.202Z" fill="#92CCBF"/>
<path d="M11.2778 15.9795C11.2089 16.8271 10.5073 16.7509 10.5 16.7487C10.5 16.7487 10.5725 15.8989 11.2778 15.9795Z" fill="#92CCBF"/>
<path d="M15.5547 15.1535C16.4715 15.4075 16.7189 14.4576 16.7214 14.45C16.7214 14.45 15.8021 14.1959 15.5547 15.1535Z" fill="#92CCBF"/>
<path d="M13.612 13.2109C12.6932 13.4633 12.4477 12.5167 12.4453 12.5065C12.4453 12.5065 13.3689 12.2542 13.612 13.2109Z" fill="#92CCBF"/>
<path d="M16.3311 15.1967C16.3373 15.2956 16.3219 15.3948 16.2859 15.4881C16.2499 15.5815 16.1939 15.667 16.1216 15.7397C16.0491 15.8123 15.9617 15.8705 15.8645 15.9107C15.7673 15.951 15.6623 15.9725 15.556 15.9739C15.5498 15.8749 15.5653 15.7757 15.6013 15.6824C15.6373 15.5891 15.6932 15.5035 15.7656 15.4309C15.8381 15.3583 15.9255 15.3001 16.0227 15.2598C16.1199 15.2196 16.2248 15.1981 16.3311 15.1967Z" fill="#92CCBF"/>
<path d="M26.8365 14.4194C26.7721 15.5211 27.9842 15.5832 28.0002 15.5853C28.0002 15.5853 28.0576 14.4774 26.8365 14.4194Z" fill="#92CCBF"/>
<path d="M18.2266 12.865C18.1582 12.8354 18.0963 12.7914 18.0446 12.7357C17.9928 12.68 17.9523 12.6138 17.9256 12.5411C17.8988 12.4684 17.8864 12.3907 17.889 12.3127C17.8916 12.2349 17.9092 12.1583 17.9408 12.0878C18.0089 12.1178 18.0705 12.162 18.122 12.2178C18.1735 12.2735 18.2138 12.3397 18.2404 12.4123C18.2671 12.4848 18.2797 12.5623 18.2773 12.6401C18.2749 12.7179 18.2577 12.7944 18.2266 12.865Z" fill="#92CCBF"/>
<path d="M17.1118 16.9412C17.0616 17.004 17.0013 17.0539 16.9344 17.0881C16.8676 17.1222 16.7956 17.1398 16.7229 17.1398C16.6502 17.1398 16.5782 17.1222 16.5114 17.0881C16.4445 17.0539 16.3842 17.004 16.334 16.9412C16.3852 16.8798 16.4462 16.8312 16.5135 16.7986C16.5808 16.766 16.6529 16.7499 16.7256 16.7513C16.7982 16.7527 16.8699 16.7717 16.9362 16.8069C17.0026 16.8422 17.0623 16.893 17.1118 16.9565V16.9412Z" fill="#92CCBF"/>
<path d="M22.5553 11.2849C22.3566 10.3629 21.3979 10.548 21.3887 10.5498C21.3887 10.5498 21.593 11.4753 22.5553 11.2849Z" fill="#92CCBF"/>
<path d="M17.8923 22.1919C18.002 22.1871 18.1095 22.1629 18.2082 22.1209C18.3071 22.0788 18.3951 22.0196 18.467 21.9471C18.5391 21.8745 18.5935 21.7899 18.6272 21.6984C18.6609 21.6069 18.6731 21.5104 18.663 21.4147C18.5532 21.4191 18.4456 21.4431 18.3466 21.4851C18.2477 21.5271 18.1595 21.5862 18.0875 21.6589C18.0154 21.7315 17.961 21.8162 17.9274 21.9078C17.8939 21.9994 17.8819 22.0961 17.8923 22.1919Z" fill="#92CCBF"/>
<path d="M23.9643 14.4196C24.3441 13.7738 23.8698 13.26 23.8652 13.2538C23.8652 13.2538 23.4869 13.9058 23.9628 14.4196H23.9643Z" fill="#92CCBF"/>
<path d="M12.0504 21.4146C10.8026 21.3347 10.89 20.259 10.89 20.2488C10.9018 20.2488 12.1427 20.3328 12.0504 21.4146Z" fill="#92CCBF"/>
<path d="M17.11 18.6006C16.2812 18.9977 15.9455 18.0036 15.9434 17.9936C15.9434 17.9936 16.7723 17.599 17.11 18.6006Z" fill="#92CCBF"/>
<path d="M21.9737 22.5805C22.5759 21.6118 21.5755 21.0306 21.5658 21.026C21.5658 21.026 20.966 22.0016 21.9737 22.5805Z" fill="#92CCBF"/>
<path d="M9.32918 15.1967C8.4985 15.143 8.55401 14.425 8.55617 14.4194C8.55617 14.4194 9.3911 14.475 9.32918 15.1967Z" fill="#92CCBF"/>
<path d="M19.0551 21.0072C18.9389 20.1029 18.2825 20.2579 18.2773 20.2603C18.2773 20.2603 18.397 21.1668 19.0551 21.0072Z" fill="#92CCBF"/>
<path d="M13.7868 21.026C13.728 21.0784 13.6822 21.1404 13.6521 21.2084C13.622 21.2764 13.6083 21.3489 13.6119 21.4216C13.6154 21.4943 13.6361 21.5656 13.6727 21.6312C13.7093 21.6968 13.761 21.7554 13.8248 21.8032C13.8835 21.7509 13.9294 21.6889 13.9594 21.6209C13.9895 21.5529 14.0032 21.4803 13.9997 21.4077C13.9961 21.335 13.9754 21.2637 13.9388 21.1981C13.9023 21.1325 13.8506 21.0739 13.7868 21.026Z" fill="#92CCBF"/>
<path d="M25.6568 11.3532C25.4368 12.2832 24.5 12.0709 24.5 12.0587C24.5 12.0587 24.7249 11.1262 25.6667 11.3435L25.6568 11.3532Z" fill="#92CCBF"/>
<path d="M18.2773 17.4853C19.1917 17.7393 19.4416 16.7894 19.444 16.7817C19.444 16.7817 18.5223 16.5277 18.2773 17.4853Z" fill="#92CCBF"/>
<path d="M24.4997 16.3636C24.4987 16.4174 24.4876 16.4706 24.4672 16.5195C24.4469 16.5686 24.4176 16.6125 24.3813 16.6486C24.3449 16.6847 24.3022 16.7123 24.2557 16.7296C24.2093 16.747 24.1602 16.7537 24.1113 16.7494C24.1127 16.6956 24.124 16.6428 24.1445 16.594C24.165 16.5452 24.1943 16.5014 24.2306 16.4654C24.2669 16.4294 24.3094 16.4017 24.3557 16.3843C24.4019 16.3668 24.4509 16.3597 24.4997 16.3636Z" fill="#92CCBF"/>
<path d="M23.8445 15.9741C23.9125 16.0158 23.9705 16.0692 24.0149 16.1312C24.0593 16.1932 24.0893 16.2625 24.103 16.3351C24.1167 16.4076 24.1139 16.4818 24.0947 16.5533C24.0755 16.6248 24.0404 16.6922 23.9914 16.7514C23.9229 16.71 23.8645 16.6567 23.8197 16.5947C23.775 16.5327 23.7449 16.4633 23.7312 16.3907C23.7174 16.3181 23.7204 16.2437 23.7398 16.1721C23.7593 16.1005 23.7949 16.0332 23.8445 15.9741Z" fill="#92CCBF"/>
<path d="M8.55556 20.306C8.19052 21.2779 7.00932 20.9858 7 20.9819C7 20.9819 7.372 20.0062 8.55556 20.306Z" fill="#92CCBF"/>
<path d="M26.5408 19.4716C26.1365 20.5819 27.1472 21.0105 27.1472 21.026C27.1472 21.026 27.5393 19.9157 26.5408 19.4849V19.4716Z" fill="#92CCBF"/>
<path d="M10.06 21.4146C9.99174 21.3847 9.92996 21.3405 9.87837 21.2848C9.82673 21.229 9.78636 21.1628 9.75964 21.0902C9.73297 21.0176 9.72046 20.94 9.72297 20.8622C9.72548 20.7844 9.74292 20.7079 9.77423 20.6373C9.84246 20.6672 9.90424 20.7114 9.95588 20.7671C10.0075 20.8229 10.0479 20.8891 10.0746 20.9616C10.1013 21.0343 10.1137 21.1118 10.1112 21.1897C10.1087 21.2675 10.0913 21.344 10.06 21.4146Z" fill="#92CCBF"/>
<path d="M18.6669 19.4366C17.8602 18.6037 17.1196 19.5018 17.1113 19.511C17.1113 19.511 17.9263 20.344 18.6669 19.4366Z" fill="#92CCBF"/>
<path d="M23.3358 21.8032C23.3909 21.8055 23.4449 21.8175 23.4945 21.8385C23.5441 21.8595 23.5882 21.8891 23.6242 21.9254C23.6602 21.9617 23.6872 22.0041 23.7037 22.0497C23.7202 22.0955 23.7258 22.1437 23.7202 22.1913C23.6653 22.1886 23.6115 22.1764 23.5621 22.1552C23.5128 22.1341 23.4688 22.1045 23.4329 22.0683C23.397 22.032 23.3699 21.9899 23.3533 21.9444C23.3365 21.8988 23.3306 21.8508 23.3358 21.8032Z" fill="#92CCBF"/>
<path d="M28.2423 14.4194C28.2967 14.4755 28.3374 14.5404 28.3619 14.6102C28.3865 14.6801 28.3944 14.7536 28.3852 14.8261C28.3759 14.8988 28.3498 14.969 28.3082 15.0326C28.2667 15.0963 28.2107 15.1521 28.1435 15.1967C28.0897 15.1402 28.0496 15.0751 28.0257 15.005C28.0017 14.9349 27.9944 14.8615 28.0042 14.7889C28.014 14.7164 28.0406 14.6463 28.0825 14.5828C28.1244 14.5193 28.1807 14.4638 28.2481 14.4194H28.2423Z" fill="#92CCBF"/>
<path d="M22.9453 21.1426C23.4111 21.6389 24.1052 21.3043 24.112 21.3043C24.112 21.3043 23.6394 20.8063 22.9453 21.1426Z" fill="#92CCBF"/>
<path d="M19.8283 11.6991C18.5862 11.7752 18.6671 12.8557 18.6671 12.8649C18.6798 12.8649 19.9155 12.7832 19.8283 11.6991Z" fill="#92CCBF"/>
<path d="M24.253 21.4147C24.3198 21.4587 24.3759 21.514 24.4176 21.5775C24.4594 21.6408 24.486 21.7109 24.4959 21.7836C24.5057 21.8562 24.4988 21.9298 24.4752 22C24.4517 22.0701 24.4121 22.1354 24.359 22.1919C24.2921 22.1479 24.2362 22.0926 24.1944 22.0292C24.1527 21.9659 24.1259 21.8959 24.1159 21.8233C24.1058 21.7508 24.1125 21.6772 24.1357 21.607C24.1589 21.5368 24.1981 21.4714 24.2509 21.4147H24.253Z" fill="#92CCBF"/>
<path d="M24.8887 20.6649C25.5273 20.468 25.6647 21.3903 25.6664 21.3981C25.6664 21.3981 25.0243 21.5898 24.8887 20.6649Z" fill="#92CCBF"/>
<path d="M28.0007 16.9929C27.485 16.516 26.8403 16.8912 26.834 16.8959C26.834 16.8959 27.3539 17.3728 28.0007 16.9929Z" fill="#92CCBF"/>
<path d="M28.3919 14.4194C29.2232 14.473 29.1656 15.1893 29.1656 15.1967C29.1656 15.1967 28.3301 15.1394 28.3919 14.4194Z" fill="#92CCBF"/>
<path d="M24.1118 19.0779C24.0462 18.2336 23.3394 18.3074 23.334 18.3074C23.334 18.3074 23.4032 19.1561 24.1118 19.0779Z" fill="#92CCBF"/>
<path d="M26.0547 16.3842C26.135 16.3646 26.2196 16.3582 26.3033 16.3654C26.3869 16.3725 26.4678 16.3931 26.5408 16.4258C26.6138 16.4585 26.6773 16.5025 26.7275 16.5553C26.7777 16.6081 26.8135 16.6684 26.8325 16.7324C26.7528 16.7503 26.6694 16.7555 26.5871 16.7475C26.5048 16.7397 26.4254 16.7188 26.3537 16.6862C26.2821 16.6537 26.2196 16.6102 26.1699 16.5582C26.1204 16.5063 26.0847 16.4471 26.0652 16.3842H26.0547Z" fill="#92CCBF"/>
<path d="M24.8887 19.8786C24.9698 19.8607 25.0548 19.8557 25.1384 19.8639C25.2221 19.8721 25.3028 19.8933 25.3755 19.9261C25.4482 19.959 25.5115 20.0028 25.5616 20.0551C25.6116 20.1073 25.6473 20.1668 25.6664 20.23C25.5857 20.2479 25.5011 20.253 25.4177 20.2451C25.3343 20.2372 25.2538 20.2164 25.1812 20.184C25.1085 20.1515 25.0452 20.1081 24.9949 20.0563C24.9446 20.0045 24.9085 19.9455 24.8887 19.8827V19.8786Z" fill="#92CCBF"/>
<path d="M27.6113 19.4648C27.6173 19.4064 27.6322 19.3502 27.6551 19.2994C27.678 19.2486 27.7084 19.2044 27.7446 19.1693C27.7809 19.1343 27.8221 19.109 27.8659 19.0952C27.9097 19.0814 27.9552 19.0792 27.9997 19.0887C27.9939 19.1473 27.9791 19.2037 27.9563 19.2546C27.9335 19.3055 27.903 19.3498 27.8668 19.3849C27.8305 19.42 27.7892 19.4452 27.7453 19.4589C27.7014 19.4727 27.6558 19.4747 27.6113 19.4648Z" fill="#92CCBF"/>
<path d="M24.6669 20.2488C24.2621 20.8675 24.7204 21.4104 24.7251 21.4146C24.7251 21.4146 25.1298 20.7833 24.6669 20.2488Z" fill="#92CCBF"/>
<path d="M28.778 20.5812C28.5084 19.6109 27.6211 19.8997 27.6113 19.9023C27.6113 19.9023 27.8882 20.8779 28.778 20.5812Z" fill="#92CCBF"/>
<path d="M27.2227 14.3629C27.5877 13.3891 28.7666 13.6831 28.7782 13.6869C28.7782 13.6869 28.4062 14.6608 27.2227 14.3629Z" fill="#92CCBF"/>
<path d="M13.1688 17.1398C12.6629 17.4937 12.8801 18.2984 12.8817 18.3056C12.8817 18.3056 13.3876 17.9469 13.1673 17.1398H13.1688Z" fill="#92CCBF"/>
<path d="M7.05514 19.0829C7.56011 19.4395 7.34207 20.2419 7.34207 20.2487C7.34207 20.2487 6.8357 19.8899 7.05514 19.0829Z" fill="#92CCBF"/>
<path d="M22.9502 14.0309C24.1981 14.1127 24.1107 15.1865 24.1107 15.1967C24.1107 15.1967 22.858 15.1108 22.9502 14.0309Z" fill="#92CCBF"/>
<path d="M27.5395 12.4764C27.8817 13.6245 26.8984 14.0263 26.8905 14.0309C26.8905 14.0309 26.5502 12.8828 27.5395 12.4764Z" fill="#92CCBF"/>
<path d="M25.3745 12.4764C26.1303 13.3409 25.181 14.0247 25.1717 14.0309C25.1717 14.0309 24.4159 13.1601 25.3745 12.4764Z" fill="#92CCBF"/>
<path d="M21.778 14.9183C20.9664 14.4814 20.6136 15.4842 20.6113 15.4924C20.6113 15.4924 21.4273 15.9265 21.778 14.9183Z" fill="#92CCBF"/>
<path d="M26.1594 14.8081C25.1966 15.3171 25.9387 15.9683 25.9442 15.974C25.9442 15.974 26.907 15.4612 26.1594 14.8081Z" fill="#92CCBF"/>
<path d="M26.9783 15.5854C27.4574 16.0957 27.0855 16.7445 27.0821 16.7513C27.0821 16.7513 26.6013 16.2341 26.9783 15.5854Z" fill="#92CCBF"/>
<path d="M15.1636 13.6423C14.3348 13.6924 14.3879 14.414 14.39 14.4196C14.39 14.4196 15.2209 14.3658 15.1636 13.6423Z" fill="#92CCBF"/>
<path d="M20.6148 15.1967C20.6714 15.2045 20.7265 15.2312 20.7767 15.275C20.8269 15.3187 20.8711 15.3788 20.9068 15.4514C20.9425 15.524 20.9689 15.6078 20.9844 15.6975C20.9998 15.7873 21.004 15.8813 20.9968 15.9739C20.9401 15.9659 20.8851 15.9393 20.8349 15.8955C20.7847 15.8517 20.7404 15.7918 20.7047 15.7191C20.669 15.6465 20.6427 15.5628 20.6272 15.473C20.6117 15.3832 20.6075 15.2892 20.6148 15.1967Z" fill="#92CCBF"/>
<path d="M13.6113 12.9259C13.6799 12.8916 13.7549 12.8713 13.8317 12.8663C13.9085 12.8612 13.9856 12.8714 14.0582 12.8963C14.1309 12.9212 14.1977 12.9603 14.2546 13.0113C14.3114 13.0622 14.3572 13.1239 14.3891 13.1927C14.3205 13.2269 14.2456 13.2472 14.1687 13.2523C14.0919 13.2575 14.0149 13.2472 13.9422 13.2223C13.8695 13.1974 13.8028 13.1582 13.7459 13.1073C13.689 13.0564 13.6433 12.9947 13.6113 12.9259Z" fill="#92CCBF"/>
<path d="M22.7014 11.3105C23.1803 10.7994 22.8075 10.151 22.8043 10.1447C22.8043 10.1447 22.3238 10.66 22.7014 11.3105Z" fill="#92CCBF"/>
<path d="M6.22266 17.585C7.03052 17.3623 7.38705 17.8688 7.38932 17.8688C7.38932 17.8688 6.57697 18.0901 6.22266 17.585Z" fill="#92CCBF"/>
<path d="M22.5553 12.131C21.6409 11.877 21.391 12.8243 21.3887 12.8345C21.3887 12.8345 22.3103 13.0884 22.5553 12.131Z" fill="#92CCBF"/>
<path d="M24.5265 11.3101C24.5915 11.2989 24.652 11.2798 24.7044 11.254C24.7568 11.2281 24.8 11.1961 24.8314 11.1598C24.8627 11.1235 24.8816 11.0837 24.8868 11.0428C24.8921 11.0019 24.8836 10.9608 24.8619 10.922C24.7969 10.9331 24.7364 10.9522 24.6839 10.9781C24.6315 11.0039 24.5883 11.036 24.557 11.0723C24.5256 11.1086 24.5067 11.1484 24.5015 11.1893C24.4963 11.2302 24.5047 11.2712 24.5265 11.3101Z" fill="#92CCBF"/>
<path d="M13.6645 12.8628C13.3782 11.9676 14.3413 11.7036 14.3511 11.6991C14.3511 11.6991 14.6325 12.5942 13.6645 12.8649V12.8628Z" fill="#92CCBF"/>
<path d="M27.5009 17.917C26.4924 18.3878 26.9261 19.4715 26.9302 19.4715C26.9302 19.4715 27.9407 18.994 27.5009 17.917Z" fill="#92CCBF"/>
<path d="M21.8891 9.36743C22.8985 9.72399 22.462 10.5253 22.4569 10.5333C22.4569 10.5333 21.4475 10.1727 21.8891 9.36743Z" fill="#92CCBF"/>
<path d="M26.7527 13.6422C26.6835 13.6065 26.6225 13.5578 26.5734 13.499C26.5243 13.4401 26.4881 13.3724 26.4669 13.2998C26.4457 13.2273 26.44 13.1514 26.4502 13.0767C26.4604 13.0019 26.4862 12.9299 26.5261 12.865C26.5955 12.9005 26.6567 12.9491 26.706 13.0079C26.7552 13.0668 26.7915 13.1345 26.8127 13.2072C26.8339 13.2798 26.8395 13.3558 26.8292 13.4306C26.8189 13.5054 26.7929 13.5773 26.7527 13.6422Z" fill="#92CCBF"/>
<path d="M20.8959 19.8602C20.827 19.8018 20.7674 19.7248 20.7208 19.6338C20.6741 19.5428 20.6413 19.4396 20.6244 19.3305C20.6076 19.2215 20.607 19.1089 20.6227 18.9995C20.6383 18.8902 20.6699 18.7863 20.7156 18.6943C20.7845 18.7527 20.8441 18.8297 20.8908 18.9207C20.9374 19.0118 20.9703 19.115 20.9871 19.2239C21.004 19.333 21.0046 19.4456 20.9889 19.555C20.9732 19.6643 20.9416 19.7682 20.8959 19.8602Z" fill="#92CCBF"/>
<path d="M14.3916 18.3057C15.2198 18.255 15.1657 17.5354 15.1657 17.5284C15.1657 17.5284 14.3334 17.5826 14.3916 18.3057Z" fill="#92CCBF"/>
<path d="M10.8919 17.5285C11.7236 17.478 11.6656 16.758 11.6656 16.7512C11.6656 16.7512 10.8301 16.805 10.8919 17.5285Z" fill="#92CCBF"/>
<path d="M9.37663 15.1967C9.12445 14.2776 10.0726 14.0309 10.0827 14.0309C10.0827 14.0309 10.3309 14.9558 9.37663 15.1967Z" fill="#92CCBF"/>
<path d="M8.55773 19.0812C9.38698 19.0294 9.3317 18.3113 9.3317 18.3058C9.3317 18.3058 8.49817 18.3613 8.55773 19.083V19.0812Z" fill="#92CCBF"/>
<path d="M10.4972 19.4716C9.66802 19.4197 9.72343 18.7017 9.72343 18.6943C9.72343 18.6943 10.559 18.7499 10.4972 19.4716Z" fill="#92CCBF"/>
<path d="M13.6099 21.0314C13.5429 21.8776 12.8394 21.8015 12.834 21.8015C12.834 21.8015 12.9065 20.9509 13.6118 21.0314H13.6099Z" fill="#92CCBF"/>
<path d="M13.6118 14.8135C13.5447 15.6611 12.8412 15.5849 12.834 15.5827C12.834 15.5827 12.9065 14.7329 13.6118 14.8135Z" fill="#92CCBF"/>
<path d="M8.94531 21.42C9.01078 22.2655 9.71581 22.1916 9.72309 22.1894C9.72309 22.1894 9.65218 21.3396 8.94531 21.42Z" fill="#92CCBF"/>
<path d="M7.77472 17.5285C6.94328 17.4748 7.00085 16.7568 7.00085 16.7512C7.00085 16.7512 7.83444 16.8086 7.77472 17.5285Z" fill="#92CCBF"/>
<path d="M7.02122 18.6942C7.93384 18.572 7.76556 17.9221 7.76556 17.917C7.76556 17.917 6.85055 18.0426 7.02122 18.6942Z" fill="#92CCBF"/>
<path d="M7.77734 19.8848C7.79975 19.9496 7.838 20.01 7.88961 20.0625C7.94128 20.1149 8.00536 20.1583 8.07798 20.19C8.15065 20.2216 8.23034 20.241 8.31234 20.2468C8.39433 20.2527 8.47689 20.2449 8.55512 20.224C8.53271 20.1592 8.49452 20.0988 8.44286 20.0463C8.39119 19.9939 8.32711 19.9505 8.25449 19.9189C8.18182 19.8872 8.10212 19.8679 8.02013 19.862C7.93819 19.8561 7.85558 19.8639 7.77734 19.8848Z" fill="#92CCBF"/>
<path d="M8.85084 20.6373C8.89377 20.7319 8.9226 20.8377 8.93564 20.9483C8.94869 21.059 8.9456 21.1722 8.92669 21.2811C8.90773 21.3901 8.87329 21.4924 8.8254 21.5822C8.77752 21.6719 8.71719 21.7471 8.64806 21.8032C8.60493 21.7088 8.5759 21.603 8.56276 21.4922C8.54956 21.3815 8.55259 21.2682 8.57156 21.1592C8.59052 21.0502 8.62506 20.9477 8.67304 20.858C8.72108 20.7683 8.78156 20.6932 8.85084 20.6373Z" fill="#92CCBF"/>
<path d="M8.27837 17.5286C9.28541 17.0578 8.85146 15.9741 8.84727 15.9741C8.84727 15.9741 7.83813 16.4515 8.27627 17.5286H8.27837Z" fill="#92CCBF"/>
<path d="M14.34 14.4196C14.272 14.3898 14.2102 14.3458 14.1585 14.2902C14.1068 14.2347 14.0661 14.1687 14.0389 14.0963C14.0117 14.0238 13.9985 13.9462 14.0001 13.8683C14.0017 13.7903 14.0181 13.7135 14.0482 13.6423C14.1165 13.6719 14.1784 13.7158 14.2303 13.7713C14.2821 13.8267 14.3229 13.8928 14.3501 13.9653C14.3773 14.0379 14.3905 14.1155 14.3887 14.1935C14.387 14.2716 14.3704 14.3485 14.34 14.4196Z" fill="#92CCBF"/>
<path d="M13.5625 9.75612C13.494 9.72637 13.4319 9.68234 13.3801 9.6267C13.3282 9.57111 13.2875 9.50499 13.2605 9.43242C13.2335 9.35979 13.2207 9.28216 13.2229 9.20424C13.2251 9.12631 13.2422 9.04964 13.2733 8.97888C13.3416 9.00881 13.4034 9.05296 13.4552 9.10866C13.5069 9.16437 13.5473 9.23055 13.5742 9.30312C13.601 9.37569 13.6136 9.4532 13.6113 9.53106C13.6089 9.60893 13.5917 9.68547 13.5605 9.75612H13.5625Z" fill="#92CCBF"/>
<path d="M25.9275 9.75612C25.9781 9.69763 26.0148 9.631 26.0354 9.56011C26.0562 9.48928 26.0604 9.41554 26.0479 9.34329C26.0354 9.27097 26.0065 9.20156 25.9628 9.13903C25.9191 9.07645 25.8616 9.02201 25.7934 8.97888C25.7428 9.03737 25.7061 9.10399 25.6854 9.17483C25.6648 9.24572 25.6605 9.31945 25.673 9.39171C25.6855 9.46402 25.7144 9.53344 25.7581 9.59597C25.8017 9.65855 25.8593 9.71299 25.9275 9.75612Z" fill="#92CCBF" fill-opacity="0.6"/>
<path d="M20.2216 11.2372C19.8178 10.2475 18.6775 10.5899 18.666 10.5939C18.666 10.5939 19.0767 11.5835 20.2216 11.2372Z" fill="#92CCBF" fill-opacity="0.6"/>
<path d="M23.33 10.9219C23.2197 10.9176 23.1116 10.8937 23.0124 10.8517C22.9131 10.8098 22.8247 10.7505 22.7527 10.6778C22.6806 10.605 22.6265 10.5201 22.5935 10.4285C22.5606 10.3368 22.5495 10.2402 22.5611 10.1447C22.6713 10.1489 22.7794 10.1728 22.8787 10.2148C22.978 10.2568 23.0663 10.3159 23.1384 10.3887C23.2104 10.4616 23.2646 10.5464 23.2975 10.6381C23.3305 10.7298 23.3415 10.8264 23.33 10.9219Z" fill="#92CCBF" fill-opacity="0.6"/>
<path d="M24.5004 11.3126C24.5006 11.4189 24.4803 11.5241 24.4407 11.6217C24.401 11.7192 24.3428 11.807 24.2699 11.8796C24.1969 11.9521 24.1106 12.0079 24.0165 12.0434C23.9223 12.0789 23.8223 12.0935 23.7227 12.086C23.7224 11.9797 23.7428 11.8745 23.7825 11.777C23.8221 11.6794 23.8803 11.5916 23.9533 11.5191C24.0262 11.4465 24.1124 11.3907 24.2066 11.3552C24.3008 11.3196 24.4008 11.3051 24.5004 11.3126Z" fill="#92CCBF" fill-opacity="0.6"/>
<path d="M22.1634 11.6992C21.3317 11.6454 21.3895 10.9294 21.3895 10.922C21.3895 10.922 22.2233 10.9795 22.1634 11.6992Z" fill="#92CCBF" fill-opacity="0.6"/>
<path d="M24.0587 11.3107C24.0904 11.2404 24.1083 11.1642 24.1111 11.0866C24.114 11.0089 24.1019 10.9314 24.0754 10.8588C24.0491 10.7862 24.0089 10.7199 23.9575 10.664C23.906 10.6081 23.8443 10.5637 23.776 10.5334C23.7441 10.6037 23.7261 10.6799 23.7231 10.7577C23.7201 10.8354 23.7322 10.913 23.7586 10.9856C23.7851 11.0583 23.8253 11.1246 23.8769 11.1805C23.9285 11.2363 23.9904 11.2806 24.0587 11.3107Z" fill="#92CCBF" fill-opacity="0.6"/>
<path d="M14.7614 11.3107C14.778 11.393 14.7819 11.4789 14.7727 11.5632C14.7636 11.6476 14.7417 11.7286 14.7082 11.8013C14.6749 11.874 14.6307 11.9369 14.5785 11.9862C14.5262 12.0355 14.467 12.0701 14.4045 12.0879C14.3881 12.0056 14.3844 11.9198 14.3936 11.8355C14.4029 11.7512 14.4249 11.6703 14.4582 11.5978C14.4916 11.5251 14.5356 11.4622 14.5877 11.4129C14.6399 11.3635 14.699 11.3288 14.7614 11.3107Z" fill="#92CCBF" fill-opacity="0.6"/>
<path d="M19.834 12.8533C19.9187 12.8673 20.0065 12.8688 20.092 12.8578C20.1776 12.8468 20.2591 12.8236 20.3318 12.7894C20.4045 12.7553 20.4667 12.711 20.5149 12.6592C20.563 12.6073 20.5959 12.5491 20.6118 12.4879C20.5272 12.4741 20.4396 12.4728 20.3543 12.4838C20.269 12.4949 20.1877 12.5182 20.1152 12.5523C20.0428 12.5865 19.9807 12.6307 19.9327 12.6824C19.8848 12.7342 19.8519 12.7923 19.836 12.8533H19.834Z" fill="#92CCBF" fill-opacity="0.6"/>
<path d="M20.2227 13.2589C20.2882 14.1032 20.995 14.0294 21.0004 14.0294C21.0004 14.0294 20.9312 13.1807 20.2227 13.2589Z" fill="#92CCBF" fill-opacity="0.6"/>
<path d="M11.8053 14.8081C12.2885 15.3117 11.9219 15.9676 11.9188 15.974C11.9188 15.974 11.4356 15.4662 11.8053 14.8081Z" fill="#92CCBF" fill-opacity="0.6"/>
<path d="M15.3056 7.42432C15.788 7.92669 15.4223 8.58381 15.4192 8.59017C15.4192 8.59017 14.9352 8.08144 15.3056 7.42432Z" fill="#92CCBF" fill-opacity="0.6"/>
<path d="M17.5 13.2107C18.415 13.4638 18.6642 12.5169 18.6667 12.5068C18.6667 12.5068 17.7469 12.2535 17.5 13.2107Z" fill="#92CCBF" fill-opacity="0.6"/>
<path d="M15.5553 11.2681C14.6366 11.5198 14.3911 10.5734 14.3887 10.5634C14.3887 10.5634 15.3123 10.3117 15.5553 11.2681Z" fill="#92CCBF" fill-opacity="0.6"/>
<path d="M16.3329 14.0826C15.9748 15.0589 14.789 14.7673 14.7773 14.7673C14.7773 14.7673 15.1494 13.7872 16.3329 14.0884V14.0826Z" fill="#92CCBF" fill-opacity="0.6"/>
<path d="M28.3911 12.865C28.3268 13.9667 29.5388 14.0308 29.5549 14.0308C29.5549 14.0308 29.6123 12.923 28.3911 12.865Z" fill="#92CCBF" fill-opacity="0.6"/>
<path d="M20.1714 10.9219C20.1032 10.8923 20.0413 10.8482 19.9896 10.7925C19.9379 10.7368 19.8975 10.6707 19.8708 10.598C19.8441 10.5253 19.8317 10.4476 19.8343 10.3697C19.8369 10.2917 19.8545 10.2152 19.886 10.1447C19.9541 10.1745 20.0158 10.2187 20.0674 10.2744C20.1189 10.3301 20.1592 10.3962 20.1859 10.4689C20.2126 10.5415 20.225 10.6191 20.2226 10.6969C20.2201 10.7748 20.2026 10.8513 20.1714 10.9219Z" fill="#92CCBF" fill-opacity="0.6"/>
<path d="M18.6664 15.0099C18.6154 15.0703 18.5544 15.118 18.487 15.1501C18.4197 15.1822 18.3475 15.198 18.2748 15.1966C18.2022 15.1953 18.1304 15.1767 18.0641 15.142C17.9976 15.1074 17.9381 15.0573 17.8887 14.995C17.9398 14.9346 18.0008 14.8869 18.0681 14.8548C18.1354 14.8227 18.2076 14.8069 18.2803 14.8082C18.353 14.8096 18.4247 14.8282 18.4911 14.8629C18.5575 14.8975 18.6171 14.9475 18.6664 15.0099Z" fill="#92CCBF" fill-opacity="0.6"/>
<path d="M24.4704 10.1447C24.6781 9.19401 23.7416 8.98068 23.7416 8.97888C23.7416 8.97888 23.5375 9.93512 24.4704 10.1447Z" fill="#92CCBF" fill-opacity="0.6"/>
<path d="M19.059 19.8602C20.3002 19.7822 20.2203 18.7046 20.2203 18.6943C20.2203 18.6943 18.9721 18.7764 19.059 19.8602Z" fill="#92CCBF" fill-opacity="0.6"/>
<path d="M25.9068 12.4765C26.2881 11.8295 25.8134 11.3148 25.8088 11.3107C25.8088 11.3107 25.429 11.9618 25.9083 12.4765H25.9068Z" fill="#92CCBF" fill-opacity="0.6"/>
<path d="M13.6071 19.4716C12.3592 19.3919 12.4466 18.316 12.4466 18.3058C12.4466 18.3058 13.6993 18.3917 13.6071 19.4716Z" fill="#92CCBF" fill-opacity="0.6"/>
<path d="M19.0553 16.6569C18.2265 17.0562 17.8929 16.0607 17.8887 16.0507C17.8887 16.0507 18.7176 15.6565 19.0553 16.6569Z" fill="#92CCBF" fill-opacity="0.6"/>
<path d="M25.0864 21.026C25.6861 20.0574 24.6858 19.4761 24.6762 19.4716C24.6762 19.4716 24.0788 20.4471 25.084 21.026H25.0864Z" fill="#92CCBF" fill-opacity="0.6"/>
<path d="M11.6632 13.6422C10.832 13.5887 10.8895 12.8723 10.8895 12.865C10.8895 12.865 11.725 12.9222 11.6632 13.6422Z" fill="#92CCBF" fill-opacity="0.6"/>
<path d="M17.8915 18.6942C18.721 18.6424 18.6657 17.9244 18.6657 17.917C18.6657 17.917 17.8341 17.9725 17.8915 18.6942Z" fill="#92CCBF" fill-opacity="0.6"/>
<path d="M15.5544 16.7766C15.5154 16.7554 15.4742 16.7474 15.4334 16.7529C15.3925 16.7585 15.3527 16.7776 15.3164 16.809C15.2802 16.8404 15.2481 16.8836 15.2223 16.9359C15.1964 16.9881 15.1773 17.0484 15.166 17.1131C15.2049 17.1347 15.2461 17.1431 15.2871 17.1377C15.3281 17.1323 15.3679 17.1134 15.4042 17.0818C15.4406 17.0503 15.4726 17.007 15.4984 16.9545C15.5242 16.9021 15.5433 16.8416 15.5544 16.7766Z" fill="#92CCBF" fill-opacity="0.6"/>
<path d="M27.2214 9.39956C27.0014 10.3297 26.0646 10.1319 26.0547 10.1173C26.0547 10.1173 26.2797 9.18476 27.2214 9.39956Z" fill="#92CCBF" fill-opacity="0.6"/>
<path d="M19.834 15.9309C20.7484 16.1841 20.9982 15.2371 21.0007 15.2271C21.0007 15.2271 20.0789 14.9739 19.834 15.9284V15.9309Z" fill="#92CCBF" fill-opacity="0.6"/>
<path d="M26.443 14.4206C26.4417 14.4748 26.4304 14.5282 26.4098 14.5774C26.3893 14.6266 26.3599 14.6706 26.3235 14.7067C26.2872 14.7428 26.2446 14.7702 26.1984 14.7873C26.1521 14.8044 26.1032 14.8107 26.0547 14.806C26.0559 14.7523 26.0669 14.6993 26.087 14.6505C26.1072 14.6016 26.136 14.5579 26.1718 14.5218C26.2076 14.4857 26.2496 14.4582 26.2953 14.4408C26.3409 14.4234 26.3893 14.4165 26.4374 14.4206H26.443Z" fill="#92CCBF" fill-opacity="0.6"/>
<path d="M25.7873 14.0309C25.8555 14.0722 25.9137 14.1255 25.9582 14.1875C26.0028 14.2495 26.0328 14.3189 26.0464 14.3916C26.0601 14.4642 26.0572 14.5386 26.0378 14.6102C26.0184 14.6818 25.983 14.7491 25.9336 14.8081C25.8654 14.7668 25.8073 14.7135 25.7627 14.6515C25.7181 14.5895 25.6882 14.5201 25.6744 14.4474C25.6608 14.3748 25.6638 14.3004 25.6831 14.2288C25.7025 14.1572 25.738 14.0899 25.7873 14.0309Z" fill="#92CCBF" fill-opacity="0.6"/>
<path d="M10.1102 18.751C9.74521 19.7249 8.56635 19.4308 8.55469 19.427C8.55469 19.427 8.92669 18.4531 10.1102 18.751Z" fill="#92CCBF" fill-opacity="0.6"/>
<path d="M28.4841 17.917C28.0798 19.0353 29.0906 19.467 29.0906 19.4715C29.0906 19.4715 29.4827 18.3532 28.4841 17.917Z" fill="#92CCBF" fill-opacity="0.6"/>
<path d="M11.9982 19.4716C11.4936 19.2361 11.7134 18.701 11.715 18.6943C11.715 18.6943 12.2212 18.9349 11.9982 19.4716Z" fill="#92CCBF" fill-opacity="0.6"/>
<path d="M20.2216 17.8822C19.4148 17.0492 18.6742 17.9473 18.666 17.9566C18.666 17.9566 19.481 18.7895 20.2216 17.8822Z" fill="#92CCBF" fill-opacity="0.6"/>
<path d="M25.2775 19.8601C25.3326 19.8624 25.3865 19.8744 25.4361 19.8954C25.4857 19.9164 25.5299 19.9459 25.566 19.9822C25.6021 20.0184 25.6294 20.0607 25.6462 20.1065C25.6631 20.1522 25.6691 20.2004 25.6639 20.2482C25.609 20.2457 25.5552 20.2336 25.5058 20.2125C25.4564 20.1914 25.4124 20.1619 25.3764 20.1256C25.3405 20.0894 25.3134 20.0472 25.2966 20.0015C25.2799 19.9559 25.274 19.9078 25.2792 19.8601H25.2775Z" fill="#92CCBF" fill-opacity="0.6"/>
<path d="M30.191 12.865C30.2441 12.9215 30.2836 12.9868 30.3072 13.0569C30.3307 13.127 30.3378 13.2005 30.3279 13.2731C30.3181 13.3456 30.2915 13.4157 30.2499 13.4791C30.2082 13.5426 30.1523 13.598 30.0855 13.6422C30.0321 13.5858 29.9923 13.5206 29.9686 13.4504C29.9449 13.3802 29.9378 13.3067 29.9477 13.2341C29.9575 13.1614 29.9841 13.0913 30.0259 13.0279C30.0677 12.9644 30.1239 12.909 30.191 12.865Z" fill="#92CCBF" fill-opacity="0.6"/>
<path d="M24.8887 19.199C25.3567 19.6962 26.0486 19.361 26.0553 19.361C26.0553 19.361 25.5828 18.8638 24.8887 19.199Z" fill="#92CCBF" fill-opacity="0.6"/>
<path d="M21.3871 9.75797C20.1448 9.83581 20.2237 10.922 20.2237 10.922C20.2343 10.922 21.4723 10.8386 21.3849 9.7561L21.3871 9.75797Z" fill="#92CCBF" fill-opacity="0.6"/>
<path d="M25.8077 19.4716C25.8745 19.5154 25.9305 19.5706 25.9723 19.634C26.0141 19.6974 26.0406 19.7676 26.0506 19.8403C26.0605 19.913 26.0534 19.9867 26.0298 20.0569C26.0062 20.1271 25.9665 20.1924 25.9133 20.2488C25.8464 20.205 25.7904 20.1498 25.7486 20.0864C25.7069 20.023 25.6803 19.9528 25.6704 19.8801C25.6605 19.8074 25.6675 19.7337 25.6911 19.6635C25.7148 19.5932 25.7544 19.5279 25.8077 19.4716Z" fill="#92CCBF" fill-opacity="0.6"/>
<path d="M26.834 18.7212C27.4726 18.5274 27.61 19.4449 27.6118 19.4552C27.6118 19.4552 26.9696 19.6465 26.834 18.7212Z" fill="#92CCBF" fill-opacity="0.6"/>
<path d="M29.944 15.0494C29.4283 14.5721 28.7837 14.9496 28.7773 14.9527C28.7773 14.9527 29.2973 15.4301 29.944 15.0494Z" fill="#92CCBF" fill-opacity="0.6"/>
<path d="M30.3373 12.865C31.1685 12.9185 31.1109 13.6348 31.1109 13.6422C31.1109 13.6422 30.2755 13.585 30.3373 12.865Z" fill="#92CCBF" fill-opacity="0.6"/>
<path d="M23.334 18.3C23.4029 17.4519 24.1045 17.5304 24.1118 17.5304C24.1118 17.5304 24.0392 18.3828 23.334 18.3Z" fill="#92CCBF" fill-opacity="0.6"/>
<path d="M25.6664 17.1344C25.6009 16.289 24.8941 16.3629 24.8887 16.365C24.8887 16.365 24.9579 17.2148 25.6664 17.1344Z" fill="#92CCBF" fill-opacity="0.6"/>
<path d="M28 14.4383C28.0809 14.4203 28.1656 14.4151 28.2491 14.4231C28.3326 14.4311 28.4132 14.4521 28.4859 14.4849C28.5586 14.5176 28.6219 14.5614 28.6721 14.6136C28.7223 14.6659 28.7582 14.7254 28.7778 14.7887C28.6969 14.807 28.6121 14.8124 28.5284 14.8045C28.4448 14.7967 28.3641 14.7757 28.2913 14.743C28.2185 14.7102 28.1551 14.6662 28.1051 14.6138C28.0549 14.5615 28.0192 14.5017 28 14.4383Z" fill="#92CCBF" fill-opacity="0.6"/>
<path d="M26.4453 18.3247C26.5261 18.3066 26.6107 18.3015 26.6941 18.3094C26.7775 18.3174 26.8579 18.3384 26.9307 18.3712C27.0033 18.4039 27.0667 18.4478 27.1169 18.5001C27.1672 18.5524 27.2033 18.6121 27.2231 18.6755C27.1423 18.6936 27.0577 18.6987 26.9744 18.6908C26.8909 18.6828 26.8105 18.6618 26.7378 18.629C26.6652 18.5962 26.6018 18.5524 26.5515 18.5001C26.5012 18.4478 26.4651 18.3881 26.4453 18.3247Z" fill="#92CCBF" fill-opacity="0.6"/>
<path d="M29.5547 17.9101C29.5603 17.8516 29.5749 17.7952 29.5977 17.7443C29.6204 17.6933 29.6509 17.649 29.6872 17.6139C29.7235 17.5789 29.765 17.5538 29.8089 17.5402C29.8529 17.5266 29.8985 17.5248 29.943 17.5349C29.9375 17.5933 29.9229 17.6498 29.9001 17.7007C29.8773 17.7516 29.8468 17.7959 29.8105 17.831C29.7742 17.8661 29.7328 17.8912 29.6888 17.9048C29.6448 17.9184 29.5992 17.9202 29.5547 17.9101Z" fill="#92CCBF" fill-opacity="0.6"/>
<path d="M26.2215 18.3058C25.8168 18.9234 26.2751 19.4653 26.2798 19.4716C26.2798 19.4716 26.6845 18.8415 26.2215 18.3058Z" fill="#92CCBF" fill-opacity="0.6"/>
<path d="M30.7214 18.6415C30.4517 17.6674 29.5645 17.9564 29.5547 17.9591C29.5547 17.9591 29.8317 18.9332 30.7214 18.6388V18.6415Z" fill="#92CCBF" fill-opacity="0.6"/>
<path d="M29.166 12.4191C29.5311 11.4472 30.7123 11.7393 30.7216 11.7432C30.7216 11.7432 30.3496 12.7189 29.166 12.4191Z" fill="#92CCBF" fill-opacity="0.6"/>
<path d="M14.7271 15.1967C14.6589 15.2409 14.597 15.3068 14.5453 15.3901C14.4936 15.4735 14.453 15.5728 14.4261 15.6818C14.3993 15.7908 14.3866 15.9073 14.3889 16.0244C14.3913 16.1414 14.4085 16.2564 14.4397 16.3625C14.5077 16.318 14.5694 16.252 14.621 16.1685C14.6727 16.0851 14.7131 15.986 14.74 15.877C14.7668 15.7681 14.7795 15.6516 14.7773 15.5347C14.7751 15.4178 14.758 15.3028 14.7271 15.1967Z" fill="#92CCBF" fill-opacity="0.6"/>
<path d="M9.00048 17.5284C9.50543 17.8828 9.28737 18.6851 9.28737 18.6943C9.28737 18.6943 8.78098 18.3331 9.00048 17.5284Z" fill="#92CCBF" fill-opacity="0.6"/>
<path d="M13.2251 10.922C14.4732 11.0018 14.3881 12.0776 14.3881 12.0878C14.3881 12.0878 13.1353 12.0019 13.2275 10.922H13.2251Z" fill="#92CCBF" fill-opacity="0.6"/>
<path d="M29.4828 10.922C29.8251 12.0701 28.8418 12.4741 28.8339 12.4765C28.8339 12.4765 28.4936 11.3284 29.4828 10.922Z" fill="#92CCBF" fill-opacity="0.6"/>
<path d="M27.3198 10.5334C28.0756 11.397 27.1263 12.0817 27.117 12.0879C27.117 12.0879 26.3612 11.216 27.3198 10.5334Z" fill="#92CCBF" fill-opacity="0.6"/>
<path d="M23.3327 12.9748C22.5233 12.5393 22.1704 13.5389 22.166 13.5499C22.166 13.5499 22.9821 13.9826 23.3327 12.9748Z" fill="#92CCBF" fill-opacity="0.6"/>
<path d="M27.7153 12.865C26.754 13.3721 27.4949 14.0252 27.5004 14.0308C27.5004 14.0308 28.4645 13.5181 27.7153 12.865Z" fill="#92CCBF" fill-opacity="0.6"/>
<path d="M28.5327 13.6423C29.0126 14.1537 28.6397 14.8014 28.6363 14.8082C28.6363 14.8082 28.1564 14.2923 28.5327 13.6423Z" fill="#92CCBF" fill-opacity="0.6"/>
<path d="M17.1089 11.6991C16.2795 11.7509 16.3347 12.4689 16.3347 12.4763C16.3347 12.4763 17.1663 12.4208 17.1089 11.6991Z" fill="#92CCBF" fill-opacity="0.6"/>
<path d="M22.1693 13.2538C22.2259 13.2614 22.2809 13.2878 22.3312 13.3314C22.3813 13.3751 22.4256 13.435 22.4614 13.5077C22.4971 13.5804 22.5235 13.6642 22.539 13.7541C22.5545 13.8441 22.5587 13.9383 22.5515 14.031C22.4949 14.023 22.44 13.9964 22.3899 13.9526C22.3398 13.9088 22.2956 13.8489 22.2599 13.7763C22.2242 13.7037 22.1978 13.6201 22.1823 13.5303C22.1666 13.4405 22.1622 13.3464 22.1693 13.2538Z" fill="#92CCBF" fill-opacity="0.6"/>
<path d="M15.5547 10.9813C15.6236 10.9475 15.6987 10.9277 15.7756 10.9231C15.8524 10.9184 15.9295 10.929 16.002 10.9541C16.0746 10.9793 16.1413 11.0186 16.1981 11.0695C16.2549 11.1205 16.3005 11.1822 16.3325 11.2509C16.2637 11.2847 16.1887 11.3047 16.112 11.3095C16.0352 11.3143 15.9582 11.3039 15.8856 11.2789C15.8131 11.2539 15.7463 11.2149 15.6895 11.1641C15.6326 11.1133 15.5868 11.0518 15.5547 10.9833V10.9813Z" fill="#92CCBF" fill-opacity="0.6"/>
<path d="M24.5357 10.5333C25.4856 10.2889 25.2525 9.37722 25.2525 9.36743C25.2525 9.36743 24.3001 9.61186 24.5382 10.5333H24.5357Z" fill="#92CCBF" fill-opacity="0.6"/>
<path d="M8.16602 15.6417C8.97386 15.4198 9.33041 15.9262 9.33268 15.9262C9.33268 15.9262 8.52028 16.1466 8.16602 15.6417Z" fill="#92CCBF" fill-opacity="0.6"/>
<path d="M24.5007 10.1878C23.5862 9.93379 23.3364 10.8838 23.334 10.8914C23.334 10.8914 24.2556 11.1454 24.5007 10.1878Z" fill="#92CCBF" fill-opacity="0.6"/>
<path d="M26.08 9.36696C26.1451 9.35581 26.2059 9.33673 26.2585 9.3109C26.3111 9.28507 26.3544 9.25302 26.3858 9.21671C26.4174 9.18039 26.4363 9.14057 26.4415 9.09969C26.4468 9.05884 26.4383 9.01771 26.4165 8.97888C26.3517 8.9904 26.2914 9.00969 26.2391 9.0356C26.1868 9.06152 26.1438 9.09356 26.1124 9.12975C26.081 9.16595 26.0619 9.2056 26.0564 9.24636C26.0509 9.28712 26.0589 9.32813 26.08 9.36696Z" fill="#92CCBF" fill-opacity="0.6"/>
<path d="M15.2191 11.3105C14.9331 10.4137 15.8954 10.1469 15.9051 10.1447C15.9051 10.1447 16.1888 11.0415 15.2191 11.3105Z" fill="#92CCBF" fill-opacity="0.6"/>
<path d="M29.4434 15.9741C28.4371 16.4449 28.8687 17.5286 28.8728 17.5286C28.8832 17.5286 29.8832 17.049 29.4434 15.9741Z" fill="#92CCBF" fill-opacity="0.6"/>
<path d="M24.7156 8.59021C25.1282 9.20026 24.675 9.75045 24.6707 9.75606C24.6707 9.75606 24.2582 9.1404 24.7156 8.59021Z" fill="#92CCBF" fill-opacity="0.6"/>
<path d="M28.6957 12.0879C28.6264 12.0525 28.5653 12.0038 28.5161 11.9449C28.4669 11.8861 28.4308 11.8182 28.4097 11.7455C28.3888 11.6728 28.3834 11.5968 28.3939 11.522C28.4045 11.4473 28.4308 11.3754 28.4712 11.3107C28.5404 11.3463 28.6013 11.3951 28.6504 11.4539C28.6993 11.5128 28.7354 11.5807 28.7564 11.6533C28.7774 11.7259 28.7828 11.8018 28.7724 11.8765C28.762 11.9512 28.7359 12.0232 28.6957 12.0879Z" fill="#92CCBF" fill-opacity="0.6"/>
<path d="M23.4984 18.3057C22.5029 17.6898 23.1538 16.7597 23.1605 16.7512C23.1605 16.7512 24.1561 17.384 23.4984 18.3057Z" fill="#92CCBF" fill-opacity="0.6"/>
<path d="M15.9463 16.3627C16.7759 16.3119 16.7217 15.5925 16.7198 15.5854C16.7198 15.5854 15.8882 15.6397 15.9463 16.3627Z" fill="#92CCBF" fill-opacity="0.6"/>
<path d="M12.4486 15.5853C13.2784 15.5333 13.2223 14.8148 13.2223 14.8081C13.2223 14.8081 12.3867 14.8635 12.4486 15.5853Z" fill="#92CCBF" fill-opacity="0.6"/>
<path d="M11.7081 13.6423C11.4578 12.7232 12.4046 12.4764 12.4147 12.4764C12.4147 12.4764 12.663 13.3994 11.7081 13.6423Z" fill="#92CCBF" fill-opacity="0.6"/>
<path d="M10.1142 17.1398C10.9436 17.0897 10.8883 16.37 10.8883 16.3625C10.8883 16.3625 10.0567 16.4164 10.1142 17.1398Z" fill="#92CCBF" fill-opacity="0.6"/>
<path d="M12.4408 17.5285C11.6115 17.4767 11.6668 16.7586 11.6668 16.7512C11.6668 16.7512 12.5003 16.8067 12.4408 17.5285Z" fill="#92CCBF" fill-opacity="0.6"/>
<path d="M15.5551 16.7156C15.4803 16.7411 15.4004 16.7532 15.3203 16.7509C15.2401 16.7487 15.1612 16.7322 15.0885 16.7025C15.0158 16.6728 14.9507 16.6306 14.8972 16.5782C14.8438 16.5259 14.803 16.4646 14.7773 16.3981C14.8521 16.3726 14.932 16.3605 15.0122 16.3628C15.0924 16.365 15.1712 16.3815 15.244 16.4112C15.3167 16.4409 15.3817 16.4831 15.4352 16.5354C15.4887 16.5878 15.5295 16.6491 15.5551 16.7156Z" fill="#92CCBF" fill-opacity="0.6"/>
<path d="M15.1664 12.8701C15.0992 13.7166 14.3941 13.6405 14.3887 13.6405C14.3887 13.6405 14.4541 12.7918 15.1664 12.8701Z" fill="#92CCBF" fill-opacity="0.6"/>
<path d="M10.8887 19.4766C10.9559 20.321 11.6592 20.2472 11.6664 20.2472C11.6664 20.2472 11.5956 19.3985 10.8887 19.4766Z" fill="#92CCBF" fill-opacity="0.6"/>
<path d="M9.3292 15.9739C8.49804 15.9204 8.55554 15.2041 8.55554 15.1967C8.55554 15.1967 9.39099 15.2539 9.3292 15.9739Z" fill="#92CCBF" fill-opacity="0.6"/>
<path d="M8.57649 16.7514C9.48759 16.6277 9.32155 15.9809 9.31916 15.9741C9.31916 15.9741 8.40327 16.1011 8.57649 16.7514Z" fill="#92CCBF" fill-opacity="0.6"/>
<path d="M9.72451 17.9421C9.74675 18.0068 9.78477 18.0671 9.83621 18.1195C9.88771 18.1719 9.95163 18.2152 10.0241 18.2468C10.0966 18.2785 10.1762 18.2979 10.258 18.3037C10.3399 18.3096 10.4223 18.3019 10.5004 18.281C10.4783 18.2161 10.4402 18.1556 10.3886 18.1031C10.3369 18.0506 10.2729 18.0072 10.2001 17.9755C10.1275 17.9438 10.0477 17.9245 9.96561 17.9188C9.8835 17.9131 9.80089 17.921 9.72266 17.9421H9.72451Z" fill="#92CCBF" fill-opacity="0.6"/>
<path d="M10.401 18.6943C10.7069 19.411 10.2082 19.8554 10.2032 19.8602C10.1608 19.7658 10.1323 19.66 10.1194 19.5493C10.1063 19.4386 10.1092 19.3252 10.1277 19.2161C10.1462 19.107 10.18 19.0044 10.227 18.9148C10.274 18.8251 10.3332 18.7501 10.401 18.6943Z" fill="#92CCBF" fill-opacity="0.6"/>
<path d="M9.83618 15.5854C10.8457 15.1146 10.4044 14.0309 10.4044 14.0309C10.4044 14.0309 9.39285 14.5083 9.83408 15.5854H9.83618Z" fill="#92CCBF" fill-opacity="0.6"/>
<path d="M16.2812 12.4763C16.2132 12.4466 16.1515 12.4026 16.0999 12.347C16.0483 12.2913 16.0079 12.2252 15.981 12.1526C15.9541 12.08 15.9414 12.0024 15.9436 11.9245C15.9458 11.8465 15.9629 11.7699 15.9938 11.6991C16.062 11.7286 16.1239 11.7725 16.1756 11.8281C16.2273 11.8837 16.2679 11.9498 16.2948 12.0225C16.3217 12.0952 16.3343 12.1729 16.332 12.2509C16.3296 12.3289 16.3124 12.4056 16.2812 12.4763Z" fill="#92CCBF" fill-opacity="0.6"/>
<path d="M13.3517 14.4196C13.3008 14.3616 13.2636 14.295 13.2426 14.2239C13.2216 14.1528 13.2171 14.0786 13.2294 14.0059C13.2418 13.9332 13.2706 13.8635 13.3142 13.801C13.3579 13.7385 13.4154 13.6845 13.4833 13.6423C13.534 13.7004 13.5709 13.767 13.5918 13.8381C13.6126 13.9092 13.617 13.9832 13.6048 14.0559C13.5925 14.1285 13.5637 14.1982 13.5202 14.2607C13.4767 14.3232 13.4194 14.3773 13.3517 14.4196Z" fill="#92CCBF"/>
<path d="M17.1113 11.6249C17.5146 10.6378 18.6562 10.9778 18.6669 10.9815C18.6669 10.9907 18.2572 11.9722 17.1113 11.6249Z" fill="#92CCBF"/>
<path d="M14.0036 11.3085C14.1136 11.3033 14.2213 11.279 14.3202 11.2368C14.4191 11.1947 14.5072 11.1357 14.5792 11.0633C14.6511 10.9909 14.7055 10.9067 14.739 10.8157C14.7725 10.7246 14.7845 10.6286 14.7742 10.5334C14.664 10.5389 14.5563 10.5636 14.4574 10.6059C14.3585 10.6483 14.2704 10.7075 14.1985 10.7801C14.1265 10.8526 14.0722 10.937 14.0387 11.0282C14.0052 11.1193 13.9933 11.2154 14.0036 11.3107V11.3085Z" fill="#92CCBF"/>
<path d="M12.834 11.7006C12.8357 11.807 12.8573 11.9118 12.8977 12.009C12.9381 12.1061 12.9964 12.1935 13.069 12.2658C13.1417 12.3382 13.2273 12.394 13.3205 12.4299C13.4138 12.4659 13.5129 12.4812 13.6118 12.475C13.6104 12.3685 13.589 12.2635 13.5487 12.1661C13.5084 12.0689 13.4501 11.9814 13.3774 11.909C13.3047 11.8366 13.219 11.7808 13.1256 11.7449C13.0322 11.7091 12.933 11.694 12.834 11.7006Z" fill="#92CCBF"/>
<path d="M15.1693 11.6992C16.0007 11.6457 15.9429 10.9289 15.9429 10.922C15.9429 10.922 15.1074 10.979 15.1693 11.6992Z" fill="#92CCBF"/>
<path d="M12.8923 12.0855C12.6665 11.2829 13.1688 10.922 13.1733 10.922C13.1733 10.922 13.3975 11.7293 12.8923 12.0878V12.0855Z" fill="#92CCBF"/>
<path d="M22.9612 11.6991C22.9447 11.7813 22.941 11.867 22.9504 11.9511C22.9597 12.0353 22.9819 12.1161 23.0157 12.1886C23.0494 12.2612 23.094 12.3241 23.1467 12.3736C23.1994 12.4229 23.2592 12.4579 23.3225 12.4763C23.3225 12.4763 23.4352 11.8489 22.9612 11.6991Z" fill="#92CCBF"/>
<path d="M17.1118 13.6191C17.0268 13.6468 16.9387 13.6496 16.853 13.6275C16.7672 13.6054 16.6855 13.5587 16.6128 13.4903C16.5401 13.4219 16.4779 13.3333 16.4299 13.2297C16.382 13.1261 16.3494 13.0098 16.334 12.8878C16.4185 12.8604 16.5062 12.8577 16.5915 12.8797C16.6768 12.9016 16.7582 12.948 16.8306 13.0157C16.9031 13.0835 16.9652 13.1714 17.0131 13.2742C17.0611 13.377 17.094 13.4925 17.1099 13.6137L17.1118 13.6191Z" fill="#92CCBF"/>
<path d="M16.7211 14.038C16.6551 14.881 15.9501 14.8064 15.9434 14.8064C15.9434 14.8064 16.0128 13.9573 16.7211 14.036V14.038Z" fill="#92CCBF"/>
<path d="M24.8887 14.8135C24.9579 15.6624 25.6597 15.5834 25.6664 15.5834C25.6664 15.5834 25.5939 14.7326 24.8887 14.8135Z" fill="#92CCBF"/>
<path d="M20.2214 13.5984C19.3069 13.8539 19.057 12.9094 19.0547 12.8953C19.0547 12.8953 19.9759 12.6422 20.2214 13.5984Z" fill="#92CCBF"/>
<path d="M22.166 11.6565C23.084 11.9103 23.3304 10.9513 23.3327 10.9513C23.3327 10.9513 22.4102 10.7022 22.166 11.6565Z" fill="#92CCBF"/>
<path d="M21.3909 14.4762C21.7559 15.4491 22.9335 15.1561 22.9442 15.1526C22.9442 15.1526 22.5727 14.1779 21.3887 14.4762H21.3909Z" fill="#92CCBF"/>
<path d="M8.16422 13.2538C8.22829 14.3653 7.01329 14.4196 7.00043 14.4196C7.00043 14.4196 6.94282 13.3024 8.16422 13.2538Z" fill="#92CCBF"/>
<path d="M17.163 11.6993C17.2312 11.6546 17.293 11.5884 17.3446 11.5048C17.3962 11.4212 17.4366 11.322 17.4633 11.213C17.49 11.104 17.5024 10.9876 17.4999 10.8708C17.4974 10.754 17.4799 10.6393 17.4485 10.5334C17.3803 10.5782 17.3185 10.6444 17.2669 10.728C17.2153 10.8115 17.1749 10.9109 17.1482 11.0198C17.1215 11.1288 17.1091 11.2452 17.1117 11.362C17.1142 11.4787 17.1317 11.5936 17.163 11.6993Z" fill="#92CCBF"/>
<path d="M18.666 15.7866C18.717 15.8473 18.778 15.8952 18.8454 15.9274C18.9128 15.9596 18.985 15.9755 19.0579 15.974C19.1307 15.9725 19.2024 15.9536 19.2688 15.9186C19.3351 15.8836 19.3947 15.8333 19.4438 15.7705C19.3928 15.7105 19.3321 15.6633 19.2651 15.6315C19.198 15.5997 19.1262 15.584 19.0539 15.5855C18.9816 15.587 18.9103 15.6056 18.8443 15.6402C18.7783 15.6747 18.719 15.7245 18.67 15.7866H18.666Z" fill="#92CCBF"/>
<path d="M17.5 14.7819C17.6317 13.8607 18.2706 14.045 18.2778 14.0475C18.2778 14.0475 18.1407 14.9738 17.5 14.7819Z" fill="#92CCBF"/>
<path d="M17.5007 19.8244C16.5632 20.0522 16.3363 19.1161 16.334 19.107C16.334 19.107 17.2759 18.8792 17.5007 19.8244Z" fill="#92CCBF"/>
<path d="M10.6486 12.8649C10.2666 12.2196 10.7412 11.7125 10.7455 11.6991C10.7455 11.6991 11.1261 12.3502 10.6472 12.8649H10.6486Z" fill="#92CCBF"/>
<path d="M24.1162 20.2487C25.3624 20.167 25.2767 19.0943 25.2767 19.0829C25.2635 19.0829 24.0239 19.1685 24.1162 20.2487Z" fill="#92CCBF"/>
<path d="M13.9862 14.8081C14.0015 14.7249 14.0043 14.6383 13.9944 14.5536C13.9844 14.4689 13.9619 14.3878 13.9282 14.3152C13.8945 14.2426 13.8504 14.1799 13.7984 14.1311C13.7464 14.0822 13.6876 14.0481 13.6257 14.0309C13.6101 14.1141 13.6072 14.2007 13.617 14.2855C13.6269 14.3704 13.6494 14.4516 13.6831 14.5242C13.7168 14.5969 13.7611 14.6596 13.8132 14.7084C13.8653 14.7572 13.9241 14.7911 13.9862 14.8081Z" fill="#92CCBF"/>
<path d="M11.8579 21.8032C11.2574 20.835 12.2575 20.2552 12.2665 20.2488C12.2665 20.2488 12.867 21.2257 11.8579 21.8032Z" fill="#92CCBF"/>
<path d="M26.8372 13.6422C27.6678 13.5889 27.6123 12.8718 27.6103 12.865C27.6103 12.865 26.7758 12.9217 26.8372 13.6422Z" fill="#92CCBF"/>
<path d="M19.4408 19.8601C18.612 19.8102 18.6654 19.0898 18.6673 19.0829C18.6673 19.0829 19.5001 19.138 19.4408 19.8601Z" fill="#92CCBF"/>
<path d="M22.3793 20.2488C22.4381 20.3012 22.484 20.3633 22.5141 20.4312C22.5442 20.4992 22.5579 20.5716 22.5544 20.6442C22.5509 20.7168 22.5302 20.7881 22.4937 20.8537C22.4571 20.9193 22.4054 20.9779 22.3417 21.026C22.2828 20.9736 22.2369 20.9115 22.2069 20.8436C22.1767 20.7756 22.1631 20.7031 22.1665 20.6305C22.1701 20.5579 22.1907 20.4867 22.2273 20.4211C22.2639 20.3555 22.3155 20.2969 22.3793 20.2488Z" fill="#92CCBF"/>
<path d="M12.0566 14.0635C12.2868 14.999 13.2072 14.7886 13.2233 14.7863C13.2233 14.7863 12.9932 13.8461 12.0566 14.0635Z" fill="#92CCBF"/>
<path d="M17.5007 16.3189C16.598 16.5744 16.3363 15.6293 16.334 15.6153C16.334 15.6153 17.2547 15.3643 17.5007 16.3189Z" fill="#92CCBF"/>
<path d="M10.1113 15.1977C10.1139 15.2517 10.1364 15.3048 10.1774 15.3539C10.2184 15.4029 10.2771 15.4469 10.3498 15.483C10.4226 15.5192 10.508 15.5467 10.6006 15.5641C10.6934 15.5815 10.7915 15.5883 10.8891 15.5841C10.8858 15.5302 10.8628 15.4772 10.8215 15.4284C10.7802 15.3795 10.7216 15.3357 10.6489 15.2997C10.5764 15.2636 10.4913 15.236 10.399 15.2185C10.3066 15.2009 10.2088 15.1938 10.1113 15.1977Z" fill="#92CCBF"/>
<path d="M11.1563 14.4194C11.0881 14.4817 11.03 14.5617 10.9855 14.6547C10.941 14.7476 10.911 14.8516 10.8972 14.9605C10.8835 15.0694 10.8863 15.1808 10.9055 15.2881C10.9248 15.3955 10.96 15.4966 11.0091 15.5853C11.0776 15.5233 11.1358 15.4434 11.1805 15.3504C11.2252 15.2574 11.2553 15.1534 11.269 15.0444C11.2828 14.9354 11.2799 14.8239 11.2605 14.7164C11.2411 14.609 11.2057 14.508 11.1563 14.4194Z" fill="#92CCBF"/>
<path d="M28 19.529C28.3651 20.5014 29.5426 20.2081 29.5556 20.2046C29.5556 20.2046 29.1839 19.2285 28 19.529Z" fill="#92CCBF"/>
<path d="M8.07291 18.6943C8.47014 19.8035 7.47428 20.2446 7.46484 20.2488C7.46484 20.2488 7.07141 19.1334 8.07291 18.6943Z" fill="#92CCBF"/>
<path d="M25.7224 21.026C26.2269 20.6739 26.0077 19.8764 26.0063 19.8601C26.0063 19.8601 25.5003 20.2169 25.7224 21.026Z" fill="#92CCBF"/>
<path d="M16.7227 18.6598C17.5293 17.8263 18.2628 18.7248 18.2782 18.7335C18.2782 18.7335 17.4638 19.567 16.7227 18.6598Z" fill="#92CCBF"/>
<path d="M11.6645 21.026C11.6095 21.031 11.5556 21.0553 11.5061 21.0974C11.4566 21.1396 11.4125 21.1988 11.3765 21.2714C11.3405 21.344 11.3133 21.4286 11.2966 21.52C11.2799 21.6114 11.2739 21.7077 11.2792 21.8032C11.3342 21.7979 11.3879 21.7734 11.4373 21.731C11.4867 21.6888 11.5307 21.6295 11.5667 21.557C11.6026 21.4845 11.6298 21.4001 11.6466 21.3089C11.6635 21.2176 11.6696 21.1214 11.6645 21.026Z" fill="#92CCBF"/>
<path d="M6.3679 13.2538C5.99114 13.9043 6.46598 14.4196 6.46941 14.4196C6.46941 14.4196 6.84789 13.7644 6.36964 13.2538H6.3679Z" fill="#92CCBF"/>
<path d="M12.0553 20.3634C11.5887 20.86 10.897 20.5305 10.8887 20.5275C10.8887 20.5275 11.3616 20.0309 12.0553 20.3634Z" fill="#92CCBF"/>
<path d="M14.003 7.81299C14.832 7.8635 14.777 8.59022 14.777 8.59022C14.777 8.59022 13.9436 8.53584 14.003 7.81299Z" fill="#92CCBF"/>
<path d="M10.7473 20.6373C10.6804 20.6814 10.6245 20.7368 10.5828 20.8001C10.541 20.8635 10.5143 20.9336 10.5044 21.0061C10.4945 21.0787 10.5014 21.1523 10.5248 21.2225C10.5482 21.2927 10.5876 21.358 10.6407 21.4146C10.7078 21.3707 10.764 21.3154 10.8059 21.252C10.8478 21.1887 10.8745 21.1185 10.8845 21.0459C10.8945 20.9732 10.8874 20.8995 10.8638 20.8293C10.8403 20.7591 10.8006 20.6938 10.7473 20.6373Z" fill="#92CCBF"/>
<path d="M10.112 19.4992C9.15216 19.3012 8.94775 20.2321 8.94531 20.2321C8.94531 20.2321 9.90757 20.4251 10.112 19.4992Z" fill="#92CCBF"/>
<path d="M6.61133 15.8268C7.12676 15.3499 7.7721 15.7265 7.77799 15.7294C7.77799 15.7294 7.25661 16.2077 6.61133 15.8268Z" fill="#92CCBF"/>
<path d="M6.21985 13.2538C5.38864 13.3071 5.44616 14.0241 5.44616 14.031C5.44616 14.031 6.28137 13.9743 6.21985 13.2538Z" fill="#92CCBF"/>
<path d="M22.5551 19.0813C22.5477 19.026 22.5215 18.9722 22.4783 18.9228C22.435 18.8735 22.3756 18.8297 22.3033 18.7938C22.231 18.758 22.1473 18.7309 22.057 18.7141C21.9668 18.6973 21.8717 18.6911 21.7773 18.6959C21.7845 18.7512 21.8104 18.8052 21.8535 18.8546C21.8967 18.904 21.9562 18.948 22.0285 18.9838C22.1009 19.0196 22.1847 19.0467 22.2751 19.0634C22.3655 19.0802 22.4607 19.0862 22.5551 19.0813Z" fill="#92CCBF"/>
<path d="M10.8887 17.9118C10.9548 17.0666 11.6597 17.1415 11.6664 17.1415C11.6664 17.1415 11.597 17.9907 10.8887 17.9118Z" fill="#92CCBF"/>
<path d="M8.94379 15.2154C8.86304 15.1974 8.77839 15.1923 8.69505 15.2004C8.61165 15.2084 8.5312 15.2294 8.45856 15.2622C8.38592 15.295 8.32257 15.3388 8.27228 15.391C8.22206 15.4432 8.18585 15.5028 8.16602 15.5661C8.24684 15.5843 8.3315 15.5896 8.41505 15.5817C8.49853 15.5738 8.57913 15.5528 8.65184 15.52C8.72455 15.4872 8.78797 15.4433 8.83812 15.3909C8.88834 15.3385 8.92425 15.2788 8.94379 15.2154Z" fill="#92CCBF"/>
<path d="M10.5004 19.1018C10.4198 19.0838 10.3354 19.0785 10.2521 19.0865C10.1689 19.0945 10.0886 19.1155 10.0159 19.1482C9.9433 19.181 9.87995 19.2248 9.82951 19.2772C9.77914 19.3295 9.74279 19.3892 9.72266 19.4527C9.80348 19.4708 9.88806 19.4759 9.97147 19.4678C10.0549 19.4597 10.1353 19.4385 10.2079 19.4056C10.2805 19.3726 10.3439 19.3285 10.3942 19.276C10.4445 19.2235 10.4806 19.1636 10.5004 19.0999V19.1018Z" fill="#92CCBF"/>
<path d="M7.38911 18.6882C7.37764 18.6298 7.34828 18.5735 7.30259 18.5227C7.25698 18.4719 7.19601 18.4276 7.12335 18.3925C7.05076 18.3573 6.96798 18.332 6.88003 18.3181C6.792 18.3042 6.70063 18.3021 6.61133 18.3116C6.62231 18.3702 6.65152 18.4265 6.69705 18.4775C6.74258 18.5285 6.80354 18.5729 6.87629 18.6081C6.94896 18.6433 7.03189 18.6685 7.12008 18.6823C7.20819 18.6961 7.29972 18.6981 7.38911 18.6882Z" fill="#92CCBF"/>
<path d="M10.3328 19.0829C10.7383 19.697 10.2801 20.2351 10.2758 20.2487C10.2758 20.2487 9.87026 19.6289 10.3328 19.0829Z" fill="#92CCBF"/>
<path d="M6.22266 19.8049C6.49207 18.8336 7.38241 19.1225 7.38932 19.125C7.38932 19.125 7.10388 20.0987 6.22266 19.8049Z" fill="#92CCBF"/>
<path d="M11.6388 14.8082C11.8355 13.8507 10.9195 13.6448 10.9051 13.6423C10.9051 13.6423 10.7134 14.6047 11.6388 14.8082Z" fill="#92CCBF"/>
<path d="M22.6136 15.9741C23.1199 16.3266 22.8964 17.1332 22.8964 17.14C22.8964 17.14 22.3901 16.7807 22.6136 15.9741Z" fill="#92CCBF"/>
<path d="M29.4423 18.3058C28.4342 18.661 28.8704 19.4631 28.8758 19.4716C28.8758 19.4716 29.8865 19.1099 29.4423 18.3058Z" fill="#92CCBF"/>
<path d="M24.498 11.3107C23.2495 11.3925 23.3352 12.467 23.3352 12.4765C23.3463 12.4765 24.588 12.391 24.4958 11.3107H24.498Z" fill="#92CCBF"/>
<path d="M7.85131 11.6991C7.50436 12.8564 8.49007 13.2493 8.49928 13.2536C8.49928 13.2536 8.83702 12.0984 7.85131 11.6991Z" fill="#92CCBF"/>
<path d="M9.6265 10.922C8.86968 11.7886 9.81948 12.4765 9.828 12.4765C9.828 12.4765 10.5848 11.6001 9.6265 10.922Z" fill="#92CCBF"/>
<path d="M20.0684 13.6423C20.1238 13.6973 20.1659 13.7613 20.192 13.8305C20.2182 13.8998 20.2278 13.9729 20.2205 14.0454C20.2131 14.1179 20.1888 14.1885 20.1491 14.2527C20.1094 14.317 20.0551 14.3737 19.9894 14.4196C19.9338 14.3647 19.8916 14.3008 19.8653 14.2316C19.8389 14.1625 19.8291 14.0894 19.8363 14.0169C19.8434 13.9444 19.8674 13.8738 19.9069 13.8095C19.9464 13.7451 20.0006 13.6883 20.0661 13.6423H20.0684Z" fill="#92CCBF"/>
<path d="M8.83862 13.2538C9.80084 13.9312 9.06182 14.799 9.05412 14.8083C9.05412 14.8083 8.09191 14.1238 8.83862 13.2538Z" fill="#92CCBF"/>
<path d="M8.01912 14.4279C7.54088 14.939 7.91973 15.5853 7.91973 15.5853C7.91973 15.5853 8.39796 15.0678 8.0222 14.4194L8.01912 14.4279Z" fill="#92CCBF"/>
<path d="M20.6142 12.0878C21.4417 12.1377 21.3884 12.8581 21.3884 12.865C21.3884 12.865 20.5569 12.8099 20.6142 12.0878Z" fill="#92CCBF"/>
<path d="M19.8337 14.7607C19.8194 14.6931 19.7979 14.6315 19.7704 14.5797C19.7428 14.5278 19.71 14.487 19.6736 14.4594C19.6373 14.4319 19.5983 14.4183 19.5591 14.4195C19.5198 14.4206 19.4811 14.4365 19.4453 14.4663C19.4596 14.534 19.4811 14.5955 19.5086 14.6473C19.5361 14.6991 19.5691 14.74 19.6054 14.7675C19.6417 14.795 19.6806 14.8087 19.7199 14.8074C19.7591 14.8063 19.7979 14.7904 19.8337 14.7607Z" fill="#92CCBF"/>
<path d="M22.1664 11.3712C22.0977 11.3369 22.0226 11.3167 21.9457 11.3118C21.8689 11.307 21.7918 11.3175 21.7191 11.3429C21.6465 11.3682 21.5798 11.4079 21.523 11.4594C21.4662 11.5109 21.4205 11.5733 21.3887 11.6427C21.5282 11.7088 21.6885 11.7174 21.8343 11.6664C21.9801 11.6155 22.0996 11.5094 22.1664 11.3712Z" fill="#92CCBF"/>
<path d="M17.3563 14.8041C17.29 14.76 17.2345 14.7048 17.1931 14.6417C17.1518 14.5786 17.1254 14.5089 17.1156 14.4368C17.1058 14.3647 17.1128 14.2916 17.1362 14.2218C17.1595 14.1521 17.1987 14.0872 17.2514 14.0309C17.3186 14.0748 17.3749 14.1301 17.4169 14.1935C17.459 14.2568 17.4857 14.3269 17.4958 14.3996C17.5058 14.4722 17.4988 14.5458 17.4752 14.6161C17.4517 14.6863 17.412 14.7516 17.3587 14.8081L17.3563 14.8041Z" fill="#92CCBF"/>
<path d="M30.3327 16.4743C29.5263 16.0342 29.1702 17.0349 29.166 17.0454C29.166 17.0454 29.9787 17.4829 30.3327 16.4743Z" fill="#92CCBF"/>
<path d="M12.834 10.5773C13.7502 10.3218 13.9984 11.2663 14.0007 11.2803C14.0007 11.2803 13.08 11.5335 12.834 10.5773Z" fill="#92CCBF"/>
<path d="M13.1972 14.031C13.1322 14.008 13.0718 13.9694 13.0194 13.9176C12.9669 13.8657 12.9237 13.8017 12.8922 13.7292C12.8606 13.6567 12.8414 13.5772 12.8358 13.4955C12.8301 13.4139 12.838 13.3317 12.8591 13.2538C12.9242 13.2765 12.9849 13.3149 13.0374 13.3667C13.09 13.4185 13.1334 13.4826 13.1649 13.5552C13.1966 13.6278 13.2157 13.7073 13.2212 13.7891C13.2267 13.8709 13.2186 13.9532 13.1972 14.031Z" fill="#92CCBF"/>
<path d="M22.5013 11.3105C22.7909 10.4136 21.817 10.1467 21.817 10.1447C21.817 10.1447 21.5296 11.0456 22.5013 11.3105Z" fill="#92CCBF"/>
<path d="M7.11089 16.7512C8.11666 17.2219 7.68891 18.2953 7.67931 18.3057C7.67931 18.3057 6.67159 17.8288 7.11089 16.7512Z" fill="#92CCBF"/>
<path d="M17.8392 13.6423C17.7708 13.6727 17.709 13.7171 17.6573 13.7729C17.6056 13.8286 17.565 13.8947 17.5381 13.9671C17.5111 14.0395 17.4982 14.1168 17.5002 14.1946C17.5022 14.2722 17.519 14.3488 17.5497 14.4196C17.618 14.3892 17.6798 14.3448 17.7316 14.289C17.7833 14.2333 17.8238 14.1672 17.8508 14.0948C17.8778 14.0224 17.8907 13.9451 17.8887 13.8673C17.8867 13.7897 17.8699 13.7131 17.8392 13.6423Z" fill="#92CCBF"/>
<path d="M9.02774 13.2536C9.09694 13.2 9.15791 13.1269 9.20697 13.0385C9.25597 12.9501 9.29205 12.8484 9.31307 12.7395C9.33404 12.6306 9.33948 12.5168 9.32905 12.4047C9.31862 12.2927 9.29256 12.1849 9.25236 12.0878C9.1832 12.1414 9.12224 12.2145 9.07318 12.3028C9.02412 12.3911 8.98794 12.4927 8.96682 12.6016C8.9457 12.7103 8.94006 12.8242 8.95023 12.9362C8.96041 13.0483 8.98616 13.1563 9.02601 13.2536H9.02774Z" fill="#92CCBF"/>
<path d="M22.2785 19.0828C22.7757 18.6209 22.451 17.9236 22.4479 17.917C22.4479 17.917 21.9491 18.3834 22.2785 19.0828Z" fill="#92CCBF"/>
<path d="M21.3862 17.5284C20.5585 17.4503 20.6107 16.3722 20.6126 16.3625C20.6126 16.3625 21.444 16.443 21.3862 17.5259V17.5284Z" fill="#92CCBF"/>
<path d="M25.2749 16.7513C24.447 16.6744 24.5007 15.6017 24.5007 15.5854C24.5007 15.5854 25.3323 15.667 25.2749 16.7513Z" fill="#92CCBF"/>
<path d="M26.79 13.6423C27.0416 12.7237 26.0935 12.4783 26.0841 12.4764C26.0841 12.4855 25.8344 13.3987 26.79 13.6423Z" fill="#92CCBF"/>
<path d="M27.6069 17.917C26.7794 17.8669 26.8348 17.1466 26.8348 17.1398C26.8348 17.1398 27.6662 17.1933 27.6089 17.917H27.6069Z" fill="#92CCBF"/>
<path d="M25.669 18.3057C26.4984 18.254 26.443 17.5353 26.443 17.5284C26.443 17.5284 25.6097 17.5836 25.669 18.3057Z" fill="#92CCBF"/>
<path d="M22.5566 20.2522C22.6243 21.1012 23.3277 21.0242 23.3344 21.0242C23.3344 21.0242 23.2634 20.1732 22.5566 20.2542V20.2522Z" fill="#92CCBF"/>
<path d="M19.834 16.3543C19.9211 16.366 20.0108 16.3655 20.0977 16.353C20.1846 16.3405 20.2669 16.3161 20.3396 16.2814C20.4122 16.2467 20.4738 16.2023 20.5206 16.151C20.5674 16.0996 20.5984 16.0423 20.6118 15.9826C20.5246 15.9709 20.4349 15.9713 20.348 15.9838C20.2611 15.9963 20.1788 16.0207 20.1061 16.0554C20.0335 16.0902 19.9719 16.1345 19.9251 16.1859C19.8783 16.2373 19.8473 16.2945 19.834 16.3543Z" fill="#92CCBF"/>
<path d="M26.8325 20.6425C26.7664 21.4888 26.0615 21.4141 26.0547 21.4121C26.0547 21.4121 26.1242 20.5637 26.8325 20.6425Z" fill="#92CCBF"/>
<path d="M28.7806 16.7514C29.6118 16.6982 29.5543 15.981 29.5543 15.9741C29.5543 15.9741 28.7191 16.0325 28.7806 16.7514Z" fill="#92CCBF"/>
<path d="M29.5336 17.9171C28.6217 17.7326 28.7895 16.7607 28.7895 16.7512C28.7895 16.7512 29.7058 16.9404 29.5336 17.9171Z" fill="#92CCBF"/>
<path d="M28.3891 18.719C28.367 18.7838 28.329 18.8442 28.2775 18.8966C28.2259 18.949 28.1618 18.9924 28.0892 19.0241C28.0165 19.0558 27.9367 19.0752 27.8546 19.081C27.7724 19.0869 27.6897 19.0792 27.6113 19.0583C27.6334 18.9935 27.6714 18.9331 27.723 18.8807C27.7745 18.8283 27.8386 18.7849 27.9113 18.7531C27.9839 18.7215 28.0638 18.7021 28.1459 18.6962C28.2281 18.6904 28.3108 18.6981 28.3891 18.719Z" fill="#92CCBF"/>
<path d="M27.3233 19.8601C27.0138 20.5809 27.5166 21.0215 27.5213 21.026C27.5213 21.026 27.823 20.3051 27.3233 19.8601Z" fill="#92CCBF"/>
<path d="M28.2814 16.3626C27.2741 15.8919 27.7013 14.8184 27.7013 14.8081C27.711 14.8081 28.7125 15.285 28.2814 16.3626Z" fill="#92CCBF"/>
<path d="M21.4428 12.865C21.5104 12.835 21.5716 12.7909 21.6228 12.7352C21.6739 12.6795 21.714 12.6134 21.7405 12.5408C21.7671 12.4682 21.7796 12.3907 21.7773 12.3128C21.775 12.235 21.758 12.1584 21.7273 12.0878C21.6587 12.1164 21.5965 12.1598 21.5444 12.2153C21.4924 12.2707 21.4517 12.3371 21.425 12.4101C21.3983 12.4831 21.3861 12.5613 21.3891 12.6396C21.3922 12.7179 21.4105 12.7946 21.4428 12.865Z" fill="#92CCBF"/>
<path d="M17.6944 36.182C14.1948 36.182 10.7738 35.145 7.86394 33.2021C4.95411 31.2591 2.68617 28.4976 1.34692 25.2666C0.00766672 22.0356 -0.342742 18.4803 0.340002 15.0503C1.02274 11.6204 2.70798 8.46975 5.18259 5.99684C7.65723 3.52396 10.8101 1.8399 14.2424 1.15764C17.6748 0.475368 21.2326 0.825532 24.4658 2.16385C27.699 3.50217 30.4625 5.76852 32.4069 8.67631C34.3512 11.5841 35.3889 15.0028 35.3889 18.5C35.3834 23.1878 33.5174 27.6822 30.2002 30.997C26.8831 34.3118 22.3856 36.1765 17.6944 36.182ZM17.6944 2.48207C14.5242 2.48207 11.4251 3.42151 8.78918 5.18157C6.1532 6.94165 4.09871 9.4433 2.88551 12.3702C1.67231 15.297 1.35488 18.5177 1.97336 21.6249C2.59185 24.7321 4.11847 27.5862 6.36021 29.8263C8.60187 32.0664 11.458 33.592 14.5673 34.21C17.6767 34.8281 20.8996 34.5109 23.8285 33.2985C26.7574 32.0862 29.2608 30.0331 31.0221 27.399C32.7835 24.7649 33.7235 21.668 33.7235 18.5C33.7192 14.2531 32.0289 10.1815 29.0239 7.17845C26.0188 4.17549 21.9443 2.48648 17.6944 2.48207Z" fill="#92CCBF"/>
<path d="M28.3068 30.6221C28.0973 30.4126 27.5506 30.4126 26.8573 30.444C26.7296 30.444 26.5724 30.4545 26.518 30.444C26.2687 30.3477 25.7157 30.4692 25.6215 30.5152C25.1627 30.7436 24.97 30.6828 24.9072 30.6451C24.5951 30.4586 23.8808 30.4775 23.6274 30.4901C23.443 30.3895 22.9026 30.136 22.5067 30.333C22.2847 30.4419 21.7945 30.4167 21.5432 30.3749C21.5432 30.3749 21.2269 30.312 20.2696 30.0732H20.2403C19.26 29.9705 18.4159 27.9782 18.2902 26.7213C18.1792 25.6088 18.5583 24.8588 18.8348 24.6263C19.6559 23.8679 19.746 22.4873 19.7565 22.2485C19.8444 22.0851 20.3849 21.5215 20.6508 21.4336C20.9168 21.3455 21.4279 20.9915 22.0794 20.5369C22.3014 20.3819 22.4983 20.2478 22.5863 20.1912C22.8419 20.0383 23.9268 19.9817 24.172 20.0844L24.7312 20.3085L24.4317 19.7869C24.2222 19.4286 23.6714 19.4245 23.1539 19.4643C23.4271 19.1376 23.6547 18.7754 23.8305 18.3875L24.3919 17.1305L23.4828 18.1549C23.2509 18.4232 22.9919 18.6669 22.7099 18.8818C22.7248 18.4964 22.8334 18.1203 23.0262 17.7862L23.4451 17.0634L22.7392 17.5054C22.2554 17.8072 22.1318 18.4649 22.0312 18.9929C22.0124 19.0955 21.9935 19.2024 21.9726 19.2862C21.8992 19.6172 21.3442 19.9712 20.4686 20.231C19.9764 20.3776 19.8611 20.2624 19.6999 20.1012C19.614 20.0152 19.6245 19.7136 19.6873 19.5229C19.8695 19.0683 20.5985 18.5173 20.7158 18.5571C20.9789 18.6174 21.253 18.6105 21.5128 18.5374C21.7726 18.4641 22.01 18.3269 22.203 18.1382L21.9202 17.8323C21.7461 17.9352 21.5425 17.9765 21.3421 17.9496C21.5473 17.5816 21.8286 17.2616 22.1674 17.011C22.7164 16.699 23.3395 16.5411 23.9709 16.5543L24.616 16.6612L24.1531 16.1982C23.8117 15.8567 23.1498 16.0055 22.5088 16.1479C22.3106 16.1965 22.1099 16.2343 21.9076 16.2611C21.8023 16.2803 21.6937 16.2586 21.6039 16.2003C21.5598 16.1585 21.5329 16.1017 21.5285 16.0411V16.0013C21.5138 15.9321 21.5536 15.687 22.2155 14.893L22.6512 14.3714L21.9977 14.5578C21.8651 14.5905 21.741 14.6517 21.6344 14.7371C21.5276 14.8224 21.4408 14.93 21.3798 15.0523H21.3693C21.3301 14.8692 21.3028 14.6837 21.2876 14.4971L21.1976 13.6423L20.8792 14.4363C20.7939 14.6343 20.7706 14.8534 20.8122 15.0648C20.8388 15.6648 20.8164 16.266 20.7451 16.8623C20.6446 17.4656 19.8926 18.0543 19.7984 18.1193C19.7543 18.1423 19.6936 18.157 19.6727 18.1403C19.6056 18.004 19.6182 17.56 19.6265 17.2038C19.6265 17.0571 19.6265 16.9084 19.6265 16.768C19.6265 16.3637 20.0141 15.8735 20.2235 15.6095L20.3178 15.4901L20.6906 14.9915L20.0916 15.1612C19.6727 15.2848 19.3543 15.7519 19.1783 16.1102C19.1279 16.1276 19.0745 16.1347 19.0212 16.1311C18.9626 16.0718 18.9093 16.0072 18.862 15.9384C18.8335 15.899 18.8028 15.8612 18.7698 15.8253L18.6798 15.7373L18.7741 15.6493L19.0359 15.3874L18.6777 15.2973C18.2588 15.1926 16.9349 16.4286 16.8092 16.5962C16.782 16.6319 16.6605 16.7492 16.2227 16.7576C16.1034 16.6842 15.7535 16.3804 15.5378 16.194C15.2843 15.9845 15.167 15.8735 15.0979 15.8274C15.09 15.7732 15.09 15.7182 15.0979 15.664L15.2551 14.8784L14.7397 15.4838C14.6805 15.5535 14.6311 15.631 14.5931 15.7143L14.1742 15.995C13.9899 16.1186 13.9019 16.3931 13.8977 16.8623C13.7113 16.7241 13.4473 16.5753 13.2483 16.6423C13.1775 16.6458 13.1066 16.6366 13.0389 16.6151L12.9551 16.5816C12.9084 16.5592 12.8555 16.5532 12.8049 16.5646C12.7543 16.576 12.7091 16.6041 12.6765 16.6444L12.5864 16.768L12.6765 16.8916C12.7383 16.9532 12.8171 16.9948 12.9027 17.011C13.1682 17.1338 13.4184 17.2871 13.6484 17.4678C13.7322 17.6123 13.6862 18.3875 13.6694 18.6409C13.6694 18.7645 13.6568 18.863 13.6568 18.9196C13.6546 18.9489 13.6546 18.9783 13.6568 19.0076C13.3763 18.8837 13.1522 18.6596 13.0284 18.3791C12.8545 17.2708 12.2974 16.8225 12.1235 16.7848L11.9643 16.7617L11.8952 16.8979C11.8746 16.9394 11.8674 16.9862 11.8746 17.0321C11.8816 17.0778 11.9028 17.1202 11.935 17.1535C12.1606 17.4798 12.2514 17.8806 12.1885 18.2722C11.5831 18.2576 11.005 18.2931 10.8626 18.6493L10.7201 19.0054L11.0972 18.9321C12.0921 18.7436 12.8902 19.2883 12.997 19.4978C12.6053 20.0152 12.3351 20.0299 12.1172 20.0404C11.9787 20.0343 11.8418 20.0717 11.7256 20.1472L11.4407 20.3567L11.7653 20.5013C12.2241 20.7108 12.6953 20.5013 13.0075 20.3672C13.0928 20.3306 13.1821 20.3039 13.2735 20.2876C14.6748 20.1577 15.6719 21.6263 15.9442 22.0809C16.5558 23.097 16.0447 24.3853 15.8667 24.7708C15.6501 25.4196 15.314 26.0222 14.8759 26.5474C14.6344 26.7914 14.4861 27.1124 14.457 27.4545C14.3715 28.1151 14.2314 28.7675 14.038 29.4049C13.9543 29.5432 13.4097 30.4147 12.6053 30.5634C11.8877 30.6923 11.1501 30.6536 10.4499 30.4503C10.0499 30.3162 9.11774 30.4272 9.01299 30.4503C8.44521 30.5309 7.88481 30.657 7.33723 30.8274L7 30.9384L7.25978 31.1793C9.81731 33.5488 12.4566 35.0781 17.7121 35.3882C17.8922 35.3986 18.0724 35.4049 18.2524 35.4049C23.1958 35.4049 28.0806 31.546 28.3592 30.9279C28.3855 30.8784 28.3947 30.8214 28.3852 30.7661C28.3758 30.7107 28.3482 30.6601 28.3068 30.6221ZM18.7363 16.745C18.8369 17.5348 18.9144 18.4503 18.8725 18.6304C18.8306 18.6891 18.7405 18.7499 18.2692 18.5949C17.8943 18.4692 17.8629 18.0103 17.8629 17.5097V17.0089L17.5047 17.3651C16.8219 18.0418 17.5822 18.9719 18.0912 19.5795C18.2242 19.7297 18.3454 19.8901 18.4535 20.0593C18.751 20.5934 18.7384 22.2276 18.5038 22.4245C18.4493 22.4711 18.3903 22.5125 18.3279 22.548C18.311 22.5413 18.2949 22.5329 18.2797 22.5229C18.2133 22.4882 18.143 22.4615 18.0703 22.4433C17.9886 22.3951 17.9132 22.0243 17.888 21.9049C17.8754 21.8441 17.865 21.7855 17.8524 21.7394C17.7707 21.4105 17.0418 20.6919 16.891 20.6269C16.891 20.6269 16.6375 20.4363 16.6375 18.9196C16.6375 18.3581 16.9538 17.4028 18.4138 15.9866C18.3844 16.2652 18.6149 16.5941 18.7363 16.745ZM26.5976 30.5005C26.5782 30.4817 26.5555 30.4668 26.5305 30.4566C26.5561 30.4657 26.579 30.4808 26.5976 30.5005ZM14.4821 16.4454C14.4724 16.3704 14.4774 16.2943 14.4967 16.2212L14.5366 16.0599V16.0872C14.5515 16.1598 14.5836 16.2277 14.6303 16.2853C14.677 16.3429 14.7368 16.3885 14.8047 16.4182C14.8948 16.4622 15.1733 16.6779 15.852 17.7128L15.8771 17.7506C15.9477 18.0318 15.9773 18.3219 15.9651 18.6116C15.9508 18.772 15.8917 18.9251 15.7947 19.0536C15.6977 19.1821 15.5666 19.2808 15.4163 19.3386C14.9032 19.5711 14.4151 18.6556 14.413 18.6556C14.3968 18.3745 14.4194 18.0926 14.48 17.8176C14.5596 17.6227 14.5805 16.6423 14.4821 16.4454Z" fill="#92CCBF"/>
</g>
<defs>
<clipPath id="clip0_120_127">
<rect width="161" height="35.3642" fill="white" transform="translate(0 0.817871)"/>
</clipPath>
</defs>
</svg>
