<svg width="300" height="454" viewBox="0 0 300 454" fill="none" xmlns="http://www.w3.org/2000/svg">
<path d="M126.76 142C127.878 159.959 125.084 177.943 118.556 194.872C112.028 211.813 101.889 227.33 88.7647 240.507C75.6272 253.683 59.7776 264.24 42.1564 271.54C24.5351 278.841 5.51023 282.746 -13.76 283C-14.8775 265.041 -12.0837 247.044 -5.55579 230.116C0.972114 213.187 11.1115 197.67 24.2355 184.493C37.373 171.317 53.2224 160.76 70.8436 153.46C88.4649 146.159 107.49 142.254 126.76 142Z" fill="#102E34"/>
<path d="M141 311.065C153.796 468.201 283.909 453.886 285 453.506C285 453.506 271.663 295.61 141 311.065Z" fill="#92CCBF"/>
<path d="M272.406 227.407C257.074 267.552 213.468 250.256 213.015 250.052C213.015 250.052 228.666 209.807 272.406 227.407Z" fill="#E9E9E9"/>
</svg>
