<svg width="345" height="467" viewBox="0 0 345 467" fill="none" xmlns="http://www.w3.org/2000/svg">
<path d="M373.627 222C375.363 249.894 371.024 277.827 360.885 304.12C350.746 330.433 334.997 354.534 314.613 375C294.208 395.466 269.591 411.862 242.222 423.201C214.852 434.54 185.303 440.605 155.373 441C153.637 413.106 157.976 385.154 168.115 358.86C178.255 332.567 194.003 308.466 214.387 288C234.792 267.535 259.409 251.138 286.778 239.799C314.148 228.46 343.697 222.395 373.627 222Z" fill="#102E34"/>
<path d="M102 56.0648C114.796 213.201 244.909 198.886 246 198.506C246 198.506 232.663 40.6095 102 56.0648Z" fill="#E9C300"/>
<path d="M373.769 0C379.81 104.869 265.253 110 264.04 110C264.04 110 258.609 4.58651 373.769 0Z" fill="#A5E557"/>
</svg>
