<svg width="20" height="20" viewBox="0 0 20 20" fill="none" xmlns="http://www.w3.org/2000/svg">
<g clip-path="url(#clip0_129_13866)">
<path d="M20.0004 19.1667C20.0004 19.3877 19.9126 19.5996 19.7563 19.7559C19.6 19.9122 19.388 20 19.167 20H0.8337C0.612686 20 0.400724 19.9122 0.244444 19.7559C0.0881638 19.5996 0.000366386 19.3877 0.000366386 19.1667C0.000366386 18.9456 0.0881638 18.7337 0.244444 18.5774C0.400724 18.4211 0.612686 18.3333 0.8337 18.3333H19.167C19.388 18.3333 19.6 18.4211 19.7563 18.5774C19.9126 18.7337 20.0004 18.9456 20.0004 19.1667ZM0.242866 7.12665C0.0633016 6.79359 -0.0198881 6.41707 0.00263341 6.03936C0.0251549 5.66165 0.152496 5.29768 0.370366 4.98832C0.726415 4.46592 1.20324 4.03712 1.76037 3.73832L8.0112 0.484985C8.62559 0.165511 9.30788 -0.00128174 10.0004 -0.00128174C10.6929 -0.00128174 11.3751 0.165511 11.9895 0.484985L18.2395 3.74082C18.7967 4.03962 19.2735 4.46842 19.6295 4.99082C19.8474 5.30018 19.9747 5.66415 19.9973 6.04186C20.0198 6.41957 19.9366 6.79609 19.757 7.12915C19.5637 7.49484 19.2738 7.80049 18.9188 8.01281C18.5638 8.22513 18.1573 8.33599 17.7437 8.33332H17.5004V15H18.3337C18.5547 15 18.7667 15.0878 18.923 15.2441C19.0792 15.4003 19.167 15.6123 19.167 15.8333C19.167 16.0543 19.0792 16.2663 18.923 16.4226C18.7667 16.5789 18.5547 16.6667 18.3337 16.6667H1.66703C1.44602 16.6667 1.23406 16.5789 1.07778 16.4226C0.921497 16.2663 0.8337 16.0543 0.8337 15.8333C0.8337 15.6123 0.921497 15.4003 1.07778 15.2441C1.23406 15.0878 1.44602 15 1.66703 15H2.50037V8.33332H2.25703C1.843 8.3359 1.4362 8.22474 1.08102 8.01196C0.725843 7.79917 0.435915 7.49294 0.242866 7.12665ZM4.16703 15H6.66703V8.33332H4.16703V15ZM8.3337 8.33332V15H11.667V8.33332H8.3337ZM15.8337 8.33332H13.3337V15H15.8337V8.33332ZM1.71953 6.35415C1.77182 6.45055 1.84963 6.5307 1.94443 6.58582C2.03924 6.64094 2.14739 6.66891 2.25703 6.66665H17.7437C17.8533 6.66891 17.9615 6.64094 18.0563 6.58582C18.1511 6.5307 18.2289 6.45055 18.2812 6.35415C18.3193 6.29045 18.3377 6.21693 18.3341 6.1428C18.3306 6.06867 18.3052 5.99724 18.2612 5.93749C18.0593 5.63741 17.788 5.39044 17.4704 5.21749L11.2204 1.96165C10.8437 1.76617 10.4256 1.66413 10.0012 1.66413C9.57684 1.66413 9.15869 1.76617 8.78203 1.96165L2.53203 5.21749C2.21452 5.39099 1.94331 5.6382 1.7412 5.93832C1.69711 5.99782 1.67154 6.06901 1.66768 6.14297C1.66383 6.21693 1.68186 6.29039 1.71953 6.35415Z" fill="black"/>
</g>
<defs>
<clipPath id="clip0_129_13866">
<rect width="20" height="20" fill="white"/>
</clipPath>
</defs>
</svg>
