<svg width="16" height="17" viewBox="0 0 16 17" fill="none" xmlns="http://www.w3.org/2000/svg">
<g clip-path="url(#clip0_129_12992)">
<path d="M8 0.5C3.58867 0.5 0 4.08867 0 8.5C0 12.9113 3.58867 16.5 8 16.5C12.4113 16.5 16 12.9113 16 8.5C16 4.08867 12.4113 0.5 8 0.5ZM5.33333 14.6093V14.5C5.33333 13.0293 6.52933 11.8333 8 11.8333C9.47067 11.8333 10.6667 13.0293 10.6667 14.5V14.6093C9.84933 14.9673 8.948 15.1667 8 15.1667C7.052 15.1667 6.15067 14.9673 5.33333 14.6093ZM11.95 13.8673C11.646 11.9613 9.99067 10.5 8 10.5C6.00933 10.5 4.35467 11.9613 4.05 13.8673C2.40333 12.652 1.33333 10.6987 1.33333 8.5C1.33333 4.824 4.324 1.83333 8 1.83333C11.676 1.83333 14.6667 4.824 14.6667 8.5C14.6667 10.6987 13.5967 12.652 11.95 13.8673ZM8 3.83333C6.52933 3.83333 5.33333 5.02933 5.33333 6.5C5.33333 7.97067 6.52933 9.16667 8 9.16667C9.47067 9.16667 10.6667 7.97067 10.6667 6.5C10.6667 5.02933 9.47067 3.83333 8 3.83333ZM8 7.83333C7.26467 7.83333 6.66667 7.23533 6.66667 6.5C6.66667 5.76467 7.26467 5.16667 8 5.16667C8.73533 5.16667 9.33333 5.76467 9.33333 6.5C9.33333 7.23533 8.73533 7.83333 8 7.83333Z" fill="black"/>
</g>
<defs>
<clipPath id="clip0_129_12992">
<rect width="16" height="16" fill="white" transform="translate(0 0.5)"/>
</clipPath>
</defs>
</svg>
