<svg width="16" height="17" viewBox="0 0 16 17" fill="none" xmlns="http://www.w3.org/2000/svg">
<g clip-path="url(#clip0_208_3106)">
<path d="M15.514 6.77886C14.48 5.09486 12.128 2.26953 8.00003 2.26953C3.87203 2.26953 1.52003 5.09486 0.486034 6.77886C0.166386 7.29587 -0.00292969 7.89169 -0.00292969 8.49953C-0.00292969 9.10737 0.166386 9.70319 0.486034 10.2202C1.52003 11.9042 3.87203 14.7295 8.00003 14.7295C12.128 14.7295 14.48 11.9042 15.514 10.2202C15.8337 9.70319 16.003 9.10737 16.003 8.49953C16.003 7.89169 15.8337 7.29587 15.514 6.77886ZM14.3774 9.5222C13.4894 10.9662 11.4794 13.3962 8.00003 13.3962C4.5207 13.3962 2.5107 10.9662 1.6227 9.5222C1.43279 9.2149 1.3322 8.86078 1.3322 8.49953C1.3322 8.13828 1.43279 7.78417 1.6227 7.47686C2.5107 6.03286 4.5207 3.60286 8.00003 3.60286C11.4794 3.60286 13.4894 6.0302 14.3774 7.47686C14.5673 7.78417 14.6679 8.13828 14.6679 8.49953C14.6679 8.86078 14.5673 9.2149 14.3774 9.5222Z" fill="black"/>
<path d="M8.00033 5.16699C7.34106 5.16699 6.69659 5.36249 6.14843 5.72876C5.60026 6.09503 5.17302 6.61563 4.92073 7.22471C4.66844 7.8338 4.60243 8.50402 4.73104 9.15063C4.85966 9.79723 5.17713 10.3912 5.6433 10.8573C6.10948 11.3235 6.70342 11.641 7.35003 11.7696C7.99663 11.8982 8.66685 11.8322 9.27594 11.5799C9.88503 11.3276 10.4056 10.9004 10.7719 10.3522C11.1382 9.80406 11.3337 9.1596 11.3337 8.50033C11.3326 7.6166 10.9811 6.76936 10.3562 6.14447C9.73129 5.51958 8.88406 5.16805 8.00033 5.16699ZM8.00033 10.5003C7.60476 10.5003 7.21808 10.383 6.88919 10.1633C6.56029 9.9435 6.30394 9.63114 6.15257 9.26569C6.00119 8.90024 5.96159 8.49811 6.03876 8.11015C6.11593 7.72218 6.30641 7.36582 6.58611 7.08611C6.86582 6.80641 7.22218 6.61593 7.61015 6.53875C7.99811 6.46158 8.40024 6.50119 8.76569 6.65257C9.13115 6.80394 9.4435 7.06029 9.66327 7.38918C9.88303 7.71808 10.0003 8.10476 10.0003 8.50033C10.0003 9.03076 9.78961 9.53947 9.41454 9.91454C9.03947 10.2896 8.53076 10.5003 8.00033 10.5003Z" fill="black"/>
</g>
<defs>
<clipPath id="clip0_208_3106">
<rect width="16" height="16" fill="white" transform="translate(0 0.5)"/>
</clipPath>
</defs>
</svg>
