<svg width="14" height="15" viewBox="0 0 14 15" fill="none" xmlns="http://www.w3.org/2000/svg">
<g clip-path="url(#clip0_129_12983)">
<path d="M8.74967 14.5H5.24967C3.64142 14.5 2.33301 13.1916 2.33301 11.5833V3.41667C2.33301 1.80842 3.64142 0.5 5.24967 0.5H8.74967C10.3579 0.5 11.6663 1.80842 11.6663 3.41667V11.5833C11.6663 13.1916 10.3579 14.5 8.74967 14.5ZM5.24967 1.66667C4.28484 1.66667 3.49967 2.45183 3.49967 3.41667V11.5833C3.49967 12.5482 4.28484 13.3333 5.24967 13.3333H8.74967C9.71451 13.3333 10.4997 12.5482 10.4997 11.5833V3.41667C10.4997 2.45183 9.71451 1.66667 8.74967 1.66667H5.24967ZM8.16634 11.5833C8.16634 11.2613 7.90501 11 7.58301 11H6.41634C6.09434 11 5.83301 11.2613 5.83301 11.5833C5.83301 11.9053 6.09434 12.1667 6.41634 12.1667H7.58301C7.90501 12.1667 8.16634 11.9053 8.16634 11.5833Z" fill="white"/>
</g>
<defs>
<clipPath id="clip0_129_12983">
<rect width="14" height="14" fill="white" transform="translate(0 0.5)"/>
</clipPath>
</defs>
</svg>
