<svg width="10" height="11" viewBox="0 0 10 11" fill="none" xmlns="http://www.w3.org/2000/svg">
<g clip-path="url(#clip0_400_620)">
<path d="M9.58333 5.08333H5.41667V0.916667C5.41667 0.80616 5.37277 0.700179 5.29463 0.622039C5.21649 0.543899 5.11051 0.5 5 0.5C4.88949 0.5 4.78351 0.543899 4.70537 0.622039C4.62723 0.700179 4.58333 0.80616 4.58333 0.916667V5.08333H0.416667C0.30616 5.08333 0.200179 5.12723 0.122039 5.20537C0.0438987 5.28351 0 5.38949 0 5.5C0 5.61051 0.0438987 5.71649 0.122039 5.79463C0.200179 5.87277 0.30616 5.91667 0.416667 5.91667H4.58333V10.0833C4.58333 10.1938 4.62723 10.2998 4.70537 10.378C4.78351 10.4561 4.88949 10.5 5 10.5C5.11051 10.5 5.21649 10.4561 5.29463 10.378C5.37277 10.2998 5.41667 10.1938 5.41667 10.0833V5.91667H9.58333C9.69384 5.91667 9.79982 5.87277 9.87796 5.79463C9.9561 5.71649 10 5.61051 10 5.5C10 5.38949 9.9561 5.28351 9.87796 5.20537C9.79982 5.12723 9.69384 5.08333 9.58333 5.08333Z" fill="black"/>
</g>
<defs>
<clipPath id="clip0_400_620">
<rect width="10" height="10" fill="white" transform="translate(0 0.5)"/>
</clipPath>
</defs>
</svg>
